<?xml version="1.0" standalone="no"?>
<!DOCTYPE svg PUBLIC "-//W3C//DTD SVG 1.1//EN" "http://www.w3.org/Graphics/SVG/1.1/DTD/svg11.dtd" >
<svg>
<metadata>
Created by FontForge 20110222 at Tue Sep  9 02:04:36 2014
 By Orthosie Webhosting
Generated by Fontographer 3.5
</metadata>
<defs>
<font id="Babylon5CreditsRegular" horiz-adv-x="605" >
  <font-face 
    font-family="Babylon5CreditsRegular"
    font-weight="500"
    font-stretch="normal"
    units-per-em="1000"
    panose-1="0 0 0 0 0 0 0 0 0 0"
    ascent="800"
    descent="-200"
    x-height="470"
    cap-height="640"
    bbox="-198 -233 1102 884"
    underline-thickness="20"
    underline-position="-123"
    unicode-range="U+0020-F002"
  />
<missing-glyph horiz-adv-x="884" 
d="M55 0v884h774v-884h-774zM774 55v774h-664v-774h664z" />
    <glyph glyph-name=".notdef" horiz-adv-x="884" 
d="M55 0v884h774v-884h-774zM774 55v774h-664v-774h664z" />
    <glyph glyph-name=".null" horiz-adv-x="0" 
 />
    <glyph glyph-name="nonmarkingreturn" horiz-adv-x="505" 
 />
    <glyph glyph-name="space" unicode=" " horiz-adv-x="505" 
 />
    <glyph glyph-name="exclam" unicode="!" horiz-adv-x="226" 
d="M61 640h103v-347l-3 -69l-11 -100h-77l-8 84l-4 85v347zM164 86v-86h-103v86h103z" />
    <glyph glyph-name="quotedbl" unicode="&#x22;" horiz-adv-x="339" 
d="M53 368v272h84v-272h-84zM199 368v272h85v-272h-85z" />
    <glyph glyph-name="numbersign" unicode="#" horiz-adv-x="681" 
d="M537 253v-56h-93l-27 -197h-67l29 197h-110l-29 -197h-65l27 197h-92v56h100l19 134h-93v56h101l27 197h67l-27 -197h109l27 197h68l-28 -197h84v-56h-92l-19 -134h84zM405 387h-110l-18 -134h110z" />
    <glyph glyph-name="dollar" unicode="$" 
d="M274 111v183h-112q-71 0 -97.5 26t-26.5 96v50q0 66 27 94t97 28h112v97h50v-97h225l3 -57l-66 8l-60 3h-102v-158h113q70 0 96.5 -24.5t26.5 -97.5v-75q0 -69 -26.5 -95.5t-96.5 -26.5h-113v-103h-50v103h-229l-7 57l67 -8l60 -3h109zM274 384v158h-101q-28 0 -36 -10.5
t-8 -41.5v-54q0 -31 7.5 -41.5t36.5 -10.5h101zM324 294v-183h102q24 0 35 11q9 12 9 41v79q0 30 -8 41t-36 11h-102z" />
    <glyph glyph-name="percent" unicode="%" horiz-adv-x="888" 
d="M274 0h-59l398 640h59zM503 68v192q0 39 15 54t61 15h175q44 0 61 -14q15 -15 15 -55v-192q0 -39 -16 -53.5t-60 -14.5h-175q-43 0 -59.5 13.5t-16.5 54.5zM48 379v192q0 37 17 53t59 16h176q37 0 56.5 -14.5t19.5 -54.5v-192q0 -40 -16.5 -54t-59.5 -14h-176
q-42 0 -58 13q-6 6 -13 20zM580 266v-203q0 -21 20 -21h133q11 0 15 4l5 17v203q0 21 -20 21h-133q-11 0 -15 -4zM125 577v-203q0 -21 20 -21h134q11 0 15 4l5 17v203q0 21 -20 21h-134q-11 0 -15 -4z" />
    <glyph glyph-name="ampersand" unicode="&#x26;" horiz-adv-x="681" 
d="M54 122v208q0 41 18 59t59 18h85l-47 58l-36 48q-29 43 -29 68q0 38 28 48.5t97 10.5h330l10 -63l-67 8l-60 3h-133h-64q-26 0 -26 -18q0 -9 30 -51l56 -73l52 -69l70 -92l48 -63l67 91l10 22l2 30v40h49v-67l-2 -28q-3 -13 -11 -22l-83 -107l68 -88l18 -22l14 -17
q2 -2 24 -8l18 2l18 5l-6 -53h-95q-25 0 -36 3t-31 29l-52 68l-55 -82q-12 -18 -73 -18h-157q-53 0 -83 31q-25 34 -25 91zM416 141l-165 214h-51q-27 0 -35 -10.5t-8 -41.5v-199q0 -31 7.5 -41.5t35.5 -10.5h115q25 0 33 7l14 12l18 21z" />
    <glyph glyph-name="quotesingle" unicode="'" horiz-adv-x="226" 
d="M70 369v271h85v-271h-85z" />
    <glyph glyph-name="parenleft" unicode="(" horiz-adv-x="321" 
d="M85 18v500q0 69 26.5 95.5t96.5 26.5h80v-52h-75q-27 0 -35 -10.5t-8 -41.5v-536q0 -30 7.5 -41t35.5 -11h73v-52h-78q-71 0 -97 26t-26 96z" />
    <glyph glyph-name="parenright" unicode=")" horiz-adv-x="321" 
d="M233 518v-500q0 -64 -26.5 -93t-96.5 -29h-80v52h75q26 0 34.5 11t8.5 41v536q0 30 -6.5 41t-36.5 11h-73v52h78q71 0 97 -24.5t26 -97.5z" />
    <glyph glyph-name="asterisk" unicode="*" horiz-adv-x="623" 
d="M478 411l-32 -51l-121 88l17 -155h-62l15 155l-118 -96l-34 56l138 62l-141 59l34 52l118 -88l-12 147h57l-12 -148l121 87l30 -50l-135 -59z" />
    <glyph glyph-name="plus" unicode="+" horiz-adv-x="612" 
d="M265 273v197h76v-197h199v-76h-199v-197h-76v197h-199v76h199z" />
    <glyph glyph-name="comma" unicode="," horiz-adv-x="339" 
d="M219 86v-81l-53 -55h-45l34 50h-39v86h103z" />
    <glyph glyph-name="hyphen" unicode="-" horiz-adv-x="339" 
d="M37 270h262v-70h-262v70z" />
    <glyph glyph-name="period" unicode="." horiz-adv-x="339" 
d="M219 86v-86h-103v86h103z" />
    <glyph glyph-name="slash" unicode="/" horiz-adv-x="284" 
d="M27 0h-76l301 640h79z" />
    <glyph glyph-name="zero" unicode="0" horiz-adv-x="681" 
d="M42 122v396q0 67 27.5 94.5t96.5 27.5h342q71 0 97 -24.5t26 -97.5v-396q0 -69 -26.5 -95.5t-96.5 -26.5h-342q-71 0 -98 26q-26 28 -26 96zM528 104v432q0 30 -6.5 41t-36.5 11h-296q-26 0 -36 -11q-8 -13 -8 -41v-432q0 -30 8 -41t36 -11h296q26 0 34.5 11t8.5 41z" />
    <glyph glyph-name="one" unicode="1" horiz-adv-x="321" 
d="M171 640h49v-500v-29l4 -39l3 -37l9 -35h-135l13 72l3 68v396h-68v46z" />
    <glyph glyph-name="two" unicode="2" horiz-adv-x="660" 
d="M614 0h-566v262q0 30 21 50q13 10 35 18l34 11l364 96q19 3 19 45v54q0 30 -6.5 41t-36.5 11h-301l-79 -1l-49 -6l10 59h442q71 0 97 -24.5t26 -97.5v-48q0 -61 -9.5 -82t-62.5 -36l-363 -99q-19 -6 -26 -12t-13 -23v-166h346l79 2l22 1l25 4z" />
    <glyph glyph-name="three" unicode="3" horiz-adv-x="623" 
d="M23 0l-8 59l40 -4q32 -3 86 -3h291q27 0 35.5 11t8.5 41v146q0 30 -6.5 41t-37.5 11h-135l-79 -1l-47 -6v66l39 -4q32 -3 87 -3h135q27 0 35.5 11t8.5 41v130q0 30 -6.5 41t-37.5 11h-289l-78 -1l-48 -6l8 59h429q72 0 98.5 -26t26.5 -96v-106q0 -47 -16 -59.5t-68 -21.5
q56 -6 71 -30q13 -24 13 -83v-96q0 -65 -27.5 -93.5t-97.5 -28.5h-431z" />
    <glyph glyph-name="four" unicode="4" horiz-adv-x="681" 
d="M-4 196v84l457 360h112v-370h94v-74h-94v-88l3 -57q3 -24 12 -51h-128q16 50 16 108v88h-472zM468 270v318l-401 -316z" />
    <glyph glyph-name="five" unicode="5" horiz-adv-x="660" 
d="M41 640h561l8 -59l-39 4q-33 3 -87 3h-346v-192h352q71 0 97 -24.5t26 -97.5v-152q0 -69 -26.5 -95.5t-96.5 -26.5h-451l-8 59l40 -4q32 -3 87 -3h309q26 0 34.5 11t8.5 41v188q0 30 -6.5 41t-36.5 11h-299l-79 -1l-48 -6v303z" />
    <glyph glyph-name="six" unicode="6" horiz-adv-x="681" 
d="M501 588h-310q-27 0 -35 -11q-9 -9 -9 -41v-171q12 21 19.5 26.5t13.5 7.5t17 2h308q71 0 97 -24.5t26 -97.5v-157q0 -69 -20.5 -95.5t-84.5 -26.5h-355q-71 0 -98 26q-26 28 -26 96v432v23q0 13 4 24q5 9 19 23q22 16 74 16h478l8 -59l-39 4q-32 3 -87 3zM525 104v193
q0 30 -6.5 41t-36.5 11h-291q-27 0 -35 -11q-9 -9 -9 -41v-193q0 -29 6 -40.5t38 -11.5h291q26 0 34.5 11t8.5 41z" />
    <glyph glyph-name="seven" unicode="7" 
d="M23 640h565l6 -49q-48 -40 -130 -135q-38 -44 -79 -100q-15 -21 -37 -54q-12 -18 -37 -58q-69 -116 -102 -244h-111q10 40 25.5 80.5t41 89.5t51.5 90q33 56 75 108q45 62 89 109l50 53q24 25 61 58h-350l-78 -1l-48 -6z" />
    <glyph glyph-name="eight" unicode="8" horiz-adv-x="681" 
d="M505 0h-337q-71 0 -98 26q-26 28 -26 96v140q0 40 15 61t68 21q-56 12 -69 28l-8 14q-6 17 -6 42v90q0 66 27 94t97 28h337q71 0 97 -24.5t26 -97.5v-90q0 -55 -13.5 -68.5t-62.5 -13.5q41 -6 58.5 -21.5t17.5 -48.5v-154q0 -69 -26.5 -95.5t-96.5 -26.5zM482 318h-291
q-27 0 -35 -11q-9 -9 -9 -41v-162q0 -29 6 -40.5t38 -11.5h291q26 0 34.5 11t8.5 41v162q0 30 -6.5 41t-36.5 11zM525 421v115q0 30 -6.5 41t-36.5 11h-291q-27 0 -35 -11q-9 -9 -9 -41v-114q0 -29 6 -40.5t38 -11.5h291q26 0 34.5 11t8.5 40z" />
    <glyph glyph-name="nine" unicode="9" horiz-adv-x="681" 
d="M169 52h317q26 0 34.5 11t8.5 41v176q-9 -24 -22 -33l-6 -3l-21 -5h-315q-70 0 -98 25q-26 26 -26 97v157v30.5t4.5 33t16.5 33.5q20 25 84 25h363q71 0 97 -24.5t26 -97.5v-432q0 -53 -22.5 -69.5t-74.5 -16.5h-486l-7 59l40 -4q32 -3 87 -3zM144 536v-193q0 -30 8 -41
t36 -11h298q26 0 34.5 11t8.5 41v193q0 30 -6.5 41t-36.5 11h-298q-26 0 -37 -11q-7 -16 -7 -41z" />
    <glyph glyph-name="colon" unicode=":" horiz-adv-x="339" 
d="M219 86v-86h-103v86h103zM219 292v-86h-103v86h103z" />
    <glyph glyph-name="semicolon" unicode=";" horiz-adv-x="339" 
d="M219 206h-103v86h103v-86zM219 86v-81l-53 -55h-45l34 50h-39v86h103z" />
    <glyph glyph-name="less" unicode="&#x3c;" horiz-adv-x="612" 
d="M540 69v-76l-474 209v66l474 209v-76l-377 -166z" />
    <glyph glyph-name="equal" unicode="=" horiz-adv-x="612" 
d="M540 176v-76h-474v76h474zM540 370v-76h-474v76h474z" />
    <glyph glyph-name="greater" unicode="&#x3e;" horiz-adv-x="612" 
d="M66 69l376 166l-376 166v76l474 -209v-66l-474 -209v76z" />
    <glyph glyph-name="question" unicode="?" 
d="M300 86v-86h-103v86h103zM14 640h428q71 0 97 -25q9 -9 20 -40l5 -27l2 -30v-111q0 -51 -21 -72t-60 -21h-142q-27 0 -35 -10.5t-8 -41.5v-137h-103v178q0 30 16.5 43.5t61.5 13.5h144q23 0 33.5 12t10.5 40v130q0 30 -7 41t-37 11h-284l-66 -3l-60 -8z" />
    <glyph glyph-name="at" unicode="@" horiz-adv-x="816" 
d="M537 153l-5 20q-6 -12 -14 -16l-10 -3l-21 -1h-177q-45 0 -68 18q-19 19 -19 67v50q0 48 20 67q17 19 67 19h189q18 0 24 7.5t6 28.5v5q0 20 -5 28q-6 6 -25 6h-198q-39 0 -71 -6l4 39h269q43 0 67 -18q19 -19 19 -68v-143q0 -14 13 -20q17 0 45 42t28 94q0 78 -61 151
q-73 82 -197 82q-108 0 -193 -85q-39 -42 -60 -94.5t-21 -113.5q0 -94 72 -175q83 -88 212 -88l41 1l23 7q24 8 47 26l64 1q-23 -31 -84 -62q-57 -19 -95 -19q-134 0 -231.5 93t-97.5 228q0 120 84 215q92 104 241 104q105 0 194 -61q104 -72 104 -202q0 -74 -33 -140
q-48 -84 -147 -84zM529 221v121h-215q-20 0 -24 -8q-7 -7 -7 -29v-84q0 -13 2 -17l4 -12q7 -7 25 -7h185q15 0 25 7q5 8 5 29z" />
    <glyph glyph-name="A" unicode="A" horiz-adv-x="699" 
d="M709 0h-135v11q0 7 -2 11q0 10 -7 24l-27 58l-44 92h-346l-52 -108l-24 -56l-4 -32h-85q26 29 45 69l258 531l-13 20l-22 20h132l259 -525l36 -69q15 -27 31 -46zM470 248l-151 304l-147 -304h298z" />
    <glyph glyph-name="B" unicode="B" horiz-adv-x="681" 
d="M54 100v440l-4 58l-3 23l-4 19h446q82 0 111 -26q11 -8 23 -36l6 -27l2 -35v-104q0 -48 -20 -66.5t-68 -18.5q29 0 40 -4l16 -6l13 -9q19 -19 19 -68v-116q0 -69 -30.5 -96.5t-111.5 -27.5h-446l7 42zM157 310v-258h328q26 0 34.5 11t8.5 41v154q0 30 -6.5 41t-36.5 11
h-328zM157 588v-232h328q26 0 34.5 11t8.5 41v128q0 30 -6.5 41t-36.5 11h-328z" />
    <glyph glyph-name="C" unicode="C" horiz-adv-x="568" 
d="M185 640h347l6 -64l-27 7q-12 3 -31 3l-99 2h-192q-26 0 -36 -11q-8 -13 -8 -41v-432q0 -30 8 -41t36 -11h192h28q87 0 138 12l-6 -64h-356q-79 0 -111 25.5t-32 98.5v392q0 74 31 99t112 25z" />
    <glyph glyph-name="D" unicode="D" horiz-adv-x="681" 
d="M54 100v440q0 54 -10 100h445q82 0 111 -26q11 -8 23 -36l6 -27l2 -35v-392q0 -69 -30.5 -96.5t-111.5 -27.5h-445l5 26l3 22zM157 588v-536h328q26 0 34.5 11t8.5 41v432q0 30 -6.5 41t-36.5 11h-328z" />
    <glyph glyph-name="E" unicode="E" horiz-adv-x="568" 
d="M44 640h497l5 -59l-39 4q-32 3 -87 3h-263v-242h239l77 2l55 5v-66l-43 4l-89 3h-239v-242h263l79 2l22 1l25 4l-5 -59h-497l5 26l3 22l2 52v440q0 54 -10 100z" />
    <glyph glyph-name="F" unicode="F" horiz-adv-x="547" 
d="M44 640h507l8 -59l-39 4q-32 3 -87 3h-276v-242h231l77 2l55 5v-66l-43 4l-89 3h-231v-194q0 -58 9 -100h-122l5 26l3 22l2 52v440q0 54 -10 100z" />
    <glyph glyph-name="G" unicode="G" horiz-adv-x="681" 
d="M145 542v-438q0 -30 8 -41t36 -11h288q26 0 34.5 11t8.5 41v226h-168h-80q-38 0 -70 -12v64h428l-5 -65l-2 -35v-182q0 -69 7 -100h-92l-10 42q-6 -24 -21 -35q-21 -7 -59 -7h-271q-78 0 -106.5 23t-28.5 89v416q0 63 27.5 87.5t107.5 24.5h424l5 -60l-56 11l-75 3h-286
q-26 0 -36 -11q-8 -13 -8 -41z" />
    <glyph glyph-name="H" unicode="H" horiz-adv-x="699" 
d="M535 300h-378v-200q0 -58 9 -100h-122l5 26l3 22l2 52v440q0 54 -10 100h122q-9 -36 -9 -100v-188h378v188q0 58 -9 100h121q-9 -36 -9 -100v-440q0 -58 9 -100h-121q9 36 9 100v200z" />
    <glyph glyph-name="I" unicode="I" horiz-adv-x="245" 
d="M174 540v-440q0 -58 9 -100h-121q9 36 9 100v440q0 58 -9 100h121q-9 -36 -9 -100z" />
    <glyph glyph-name="J" unicode="J" horiz-adv-x="586" 
d="M162 52h216q24 0 34 14.5t10 59.5v414q0 58 -9 100h121q-9 -36 -9 -100v-401q0 -87 -31 -113.5t-134 -26.5l-348 1l-10 67l34 -9l29 -4z" />
    <glyph glyph-name="K" unicode="K" horiz-adv-x="642" 
d="M528 640h97l-41 -35l-44 -37l-168 -157l286 -411h-129l-230 343l-142 -138v-105q0 -58 9 -100h-122l5 26l3 22l2 52v440q0 54 -10 100h122q-9 -36 -9 -100v-265l314 297l29 31l14 15z" />
    <glyph glyph-name="L" unicode="L" horiz-adv-x="586" 
d="M572 0h-522l8 41l3 59v440q0 68 -11 100h123q-9 -36 -9 -100v-488h287l79 2l22 1l26 4z" />
    <glyph glyph-name="M" unicode="M" horiz-adv-x="888" 
d="M115 0h-73l7 30l4 37l2 111v312q0 106 -11 150h144l256 -568l253 568h140l-4 -23l-4 -37l-3 -61v-15v-404q0 -58 9 -100h-121q9 36 9 100v470l-256 -570h-99l-259 570l-2 -478l2 -49z" />
    <glyph glyph-name="N" unicode="N" horiz-adv-x="699" 
d="M638 0h-130l-400 568l-2 -460l2 -51l7 -57h-74l7 30l2 37l4 111v312q0 100 -11 150h133l407 -574l3 466l-1 52l-8 56h72l-4 -23l-4 -37l-3 -61v-15v-504z" />
    <glyph glyph-name="O" unicode="O" horiz-adv-x="681" 
d="M177 640h320q75 0 104 -32q30 -30 30 -90v-396q0 -57 -30 -89.5t-104 -32.5h-320q-72 0 -103.5 32.5t-31.5 89.5v396q0 54 30 88t105 34zM528 104v432q0 30 -6.5 41t-36.5 11h-296q-26 0 -36 -11q-8 -13 -8 -41v-432q0 -30 8 -41t36 -11h296q26 0 34.5 11t8.5 41z" />
    <glyph glyph-name="P" unicode="P" horiz-adv-x="660" 
d="M639 516v-152q0 -69 -30.5 -96.5t-111.5 -27.5h-340v-140q0 -58 9 -100h-122l5 26l3 22l2 52v440q0 54 -10 100h453q82 0 111 -26q11 -8 23 -36l6 -27zM157 292h336q26 0 34.5 11t8.5 41v192q0 30 -6.5 41t-36.5 11h-336v-296z" />
    <glyph glyph-name="Q" unicode="Q" horiz-adv-x="681" 
d="M384 0h-207q-72 0 -103.5 32.5t-31.5 89.5v396q0 54 30 88t105 34h320q75 0 104 -32q30 -30 30 -90v-396q0 -57 -30 -89.5t-104 -32.5h-53l46 -78h-62zM189 52h163l-56 92h64l53 -92h72q26 0 34.5 11t8.5 41v432q0 30 -6.5 41t-36.5 11h-296q-26 0 -36 -11q-8 -13 -8 -41
v-432q0 -30 8 -41t36 -11z" />
    <glyph glyph-name="R" unicode="R" horiz-adv-x="681" 
d="M405 292h-248v-192q0 -58 9 -100h-122l5 26l3 22l2 52v440q0 54 -10 100h448q82 0 111 -26q11 -8 23 -36l6 -27l2 -35v-101q0 -69 -27.5 -96.5t-92.5 -27.5l37 -85l48 -99l12 -27l18 -32l11 -20l21 -28h-119zM157 588v-244h331q26 0 34.5 11t8.5 41v140q0 30 -6.5 41
t-36.5 11h-331z" />
    <glyph glyph-name="S" unicode="S" horiz-adv-x="642" 
d="M183 640h391l8 -59l-40 4q-32 3 -88 3h-267q-26 0 -37 -11q-7 -16 -7 -41v-107q0 -30 8 -41t36 -11h266q81 0 112 -25t31 -99v-129q0 -69 -32 -96.5t-111 -27.5h-399l-9 59l40 -4q32 -3 87 -3h277q27 0 35.5 11t8.5 41v125q0 30 -6.5 41t-37.5 11h-266q-75 0 -111 24
q-15 12 -23.5 38t-8.5 62v111q0 74 31 99t112 25z" />
    <glyph glyph-name="T" unicode="T" horiz-adv-x="547" 
d="M220 588h-99l-64 -2l-56 -8l10 62h521l10 -62l-51 7l-69 3h-99v-488q0 -58 9 -100h-121q9 36 9 100v488z" />
    <glyph glyph-name="U" unicode="U" horiz-adv-x="681" 
d="M196 52h327q25 0 35 11.5t10 40.5v428l-1 52l-9 56h73l-4 -23l-4 -37l-3 -61v-15v-381q0 -71 -23 -97t-88 -26h-323q-75 0 -103.5 25.5t-28.5 97.5v417q0 54 -10 100h122q-9 -36 -9 -100v-436q0 -30 6 -42q7 -10 33 -10z" />
    <glyph glyph-name="V" unicode="V" horiz-adv-x="623" 
d="M375 0h-126l-193 498l-31 75l-19 38l-16 29h136l3 -33l3 -15l7 -18l200 -522l193 510q16 51 16 78h79l-22 -39l-9 -18l-7 -16z" />
    <glyph glyph-name="W" unicode="W" horiz-adv-x="907" 
d="M299 0h-122l-139 507l-17 60l-27 73h130l-3 -23l-1 -15v-15l4 -18l9 -39l126 -474l149 584h126l156 -584l123 488l5 25l2 20l2 51h82q-12 -21 -24 -51l-20 -66l-132 -523h-120l-160 588z" />
    <glyph glyph-name="X" unicode="X" 
d="M518 640h96l-45 -43l-39 -42l-181 -211l174 -233l50 -64l17 -21l24 -26h-147l-18 34l-27 42l-138 191l-134 -153l-23 -29l-20 -28l-32 -57h-90l70 75l196 235l-184 255l-22 29l-38 46h142q14 -40 41 -76l129 -176l154 180l28 36z" />
    <glyph glyph-name="Y" unicode="Y" 
d="M328 324l179 269l12 25l8 22h89l-40 -45l-47 -65l-178 -264v-166q0 -67 10 -100h-122q9 36 9 100v165l-142 203l-60 84l-63 88h146q6 -31 14 -44l6 -14l9 -12l21 -32z" />
    <glyph glyph-name="Z" unicode="Z" 
d="M601 640l-428 -588h279l79 2l22 1l26 4l-8 -59h-554l427 588h-262l-79 -1l-47 -6l8 59h537z" />
    <glyph glyph-name="bracketleft" unicode="[" horiz-adv-x="302" 
d="M171 594v-652h88v-46h-173v744h173v-46h-88z" />
    <glyph glyph-name="backslash" unicode="\" horiz-adv-x="284" 
d="M27 640l304 -640h-79l-301 640h76z" />
    <glyph glyph-name="bracketright" unicode="]" horiz-adv-x="302" 
d="M128 -58v652h-88v46h173v-744h-173v46h88z" />
    <glyph glyph-name="asciicircum" unicode="^" horiz-adv-x="612" 
d="M164 283h-73l178 357h66l180 -357h-74l-139 283z" />
    <glyph glyph-name="underscore" unicode="_" horiz-adv-x="510" 
d="M505 -125h-505v50h505v-50z" />
    <glyph glyph-name="grave" unicode="`" horiz-adv-x="208" 
d="M113 520l-137 140h77l113 -140h-53z" />
    <glyph glyph-name="a" unicode="a" 
d="M554 348v-248q0 -67 10 -100h-82l-8 30q-9 -17 -21 -25l-16 -4l-28 -1h-252q-71 0 -97.5 26t-26.5 96v72q0 66 27 94t97 28h269q24 0 35 11q9 12 9 41v6q0 29 -11 39q-9 11 -33 11h-283q-57 0 -101 -9l7 55h382q71 0 97 -24.5t26 -97.5zM470 98v172h-308q-28 0 -36 -10.5
t-8 -41.5v-120q0 -31 7.5 -41.5t36.5 -10.5h264q24 0 35 11q9 12 9 41z" />
    <glyph glyph-name="b" unicode="b" 
d="M35 640h94v-202l10 14l17 11l19 5l22 2h245q71 0 97 -25q9 -9 20 -40l5 -27l2 -30v-226q0 -64 -27 -94q-28 -28 -97 -28h-250q-34 0 -50 8q-16 10 -16 33l-7 -41h-85l5 21l3 21l2 58v440q0 58 -9 100zM129 372v-274q0 -31 7.5 -41.5t36.5 -10.5h264q27 0 35.5 11t8.5 41
v274q0 30 -6.5 41t-37.5 11h-264q-28 0 -36 -10.5t-8 -41.5z" />
    <glyph glyph-name="c" unicode="c" horiz-adv-x="547" 
d="M129 372v-274q0 -31 7.5 -41.5t36.5 -10.5h255q60 0 101 9l-7 -55h-354q-71 0 -98 26q-26 28 -26 96v226q0 66 27 94t97 28h347l4 -55q-36 9 -101 9h-245q-28 0 -36 -10.5t-8 -41.5z" />
    <glyph glyph-name="d" unicode="d" 
d="M463 640h91v-540q0 -67 10 -100h-83l-6 41q-8 -41 -68 -41h-250q-71 0 -97.5 26t-26.5 96v226q0 66 27 94t97 28h245q32 0 40 -3.5t17 -15.5l11 -31l2 120q0 58 -9 100zM470 98v274q0 30 -8 41t-36 11h-264q-28 0 -36 -10.5t-8 -41.5v-274q0 -31 7.5 -41.5t36.5 -10.5
h264q24 0 35 11q9 12 9 41z" />
    <glyph glyph-name="e" unicode="e" 
d="M566 206h-448v-108q0 -31 7.5 -41.5t36.5 -10.5h303q57 0 101 9l-12 -55h-397q-71 0 -97.5 26t-26.5 96v226q0 66 27 94t97 28h285q71 0 97 -25q9 -9 20 -40l5 -27l2 -30v-142zM118 252h363v120q0 30 -6.5 41t-37.5 11h-275q-28 0 -36 -10.5t-8 -41.5v-120z" />
    <glyph glyph-name="f" unicode="f" horiz-adv-x="415" 
d="M423 470v-46h-240v-324q0 -58 9 -100h-103q9 36 9 100v324h-77v46h77v48q0 69 26.5 95.5t96.5 26.5h217l8 -55q-36 9 -101 9h-119q-27 0 -35 -10.5t-8 -41.5v-72h240z" />
    <glyph glyph-name="g" unicode="g" 
d="M554 370v-426q0 -64 -26.5 -93t-96.5 -29h-375l-8 55q38 -9 101 -9h277q21 0 35 12q9 11 9 40v110q-12 -18 -21.5 -24t-40.5 -6h-251q-71 0 -97.5 26t-26.5 96v226q0 66 27 94t97 28h243l27 -1q7 0 19 -8q13 -6 22 -32l8 41h88l-7 -41zM470 98v274q0 30 -8 41t-36 11
h-264q-28 0 -36 -10.5t-8 -41.5v-274q0 -31 7.5 -41.5t36.5 -10.5h264q24 0 35 11q9 12 9 41z" />
    <glyph glyph-name="h" unicode="h" horiz-adv-x="623" 
d="M44 100v440q0 58 -9 100h94v-202q7 13 21 25q9 3 18 5t20 2h261q71 0 97.5 -26t26.5 -96v-248q0 -58 9 -100h-103q9 36 9 100v272q0 30 -6.5 41t-37.5 11h-271q-28 0 -36 -10.5t-8 -41.5v-272q0 -58 9 -100h-103q9 36 9 100z" />
    <glyph glyph-name="i" unicode="i" horiz-adv-x="208" 
d="M61 528v68h84v-68h-84zM145 470v-370q0 -67 10 -100h-105l8 41l3 59v270q0 68 -11 100h95z" />
    <glyph glyph-name="j" unicode="j" horiz-adv-x="208" 
d="M65 528v68h84v-68h-84zM149 470v-526q0 -64 -26.5 -93t-96.5 -29h-217l-7 57l67 -8l59 -3h93q21 0 35 12q9 11 9 40v450q0 58 -9 100h93z" />
    <glyph glyph-name="k" unicode="k" horiz-adv-x="568" 
d="M438 470h106l-36 -22l-34 -22l-73 -49l-100 -69l178 -199l55 -61l26 -26l26 -22h-119l-235 260l-103 -70v-90q0 -58 9 -100h-103q9 36 9 100v440q0 58 -9 100h94v-393l249 172l35 27l13 11z" />
    <glyph glyph-name="l" unicode="l" horiz-adv-x="208" 
d="M50 640h95v-540q0 -67 10 -100h-105l8 41l3 59v440q0 68 -11 100z" />
    <glyph glyph-name="m" unicode="m" horiz-adv-x="983" 
d="M35 470h94v-34l16 25q9 9 30 9h268q42 0 60 -9q15 -12 22 -37q9 27 21.5 36.5t54.5 9.5h167q90 0 125.5 -29t35.5 -113v-228q0 -58 9 -100h-103q9 36 9 100v272q0 30 -6.5 41t-36.5 11h-228q-28 0 -36 -10.5t-8 -41.5v-272q0 -58 9 -100h-103q9 36 9 100v272
q0 30 -6.5 41t-36.5 11h-228q-28 0 -36 -10.5t-8 -41.5v-272q0 -58 9 -100h-103q9 36 9 100v270q0 58 -9 100z" />
    <glyph glyph-name="n" unicode="n" horiz-adv-x="623" 
d="M44 100v270q0 58 -9 100h98v-34l15 17l14 10q10 6 26 7h261q71 0 97.5 -26t26.5 -96v-248q0 -58 9 -100h-103q9 36 9 100v272q0 30 -6.5 41t-37.5 11h-271q-28 0 -36 -10.5t-8 -41.5v-272q0 -58 9 -100h-103q9 36 9 100z" />
    <glyph glyph-name="o" unicode="o" 
d="M566 348v-226q0 -64 -27 -94q-28 -28 -97 -28h-285q-71 0 -97.5 26t-26.5 96v226q0 66 27 94t97 28h285q71 0 97 -25q9 -9 20 -40l5 -27zM437 424h-275q-28 0 -36 -10.5t-8 -41.5v-274q0 -31 7.5 -41.5t36.5 -10.5h275q27 0 35.5 11t8.5 41v274q0 30 -6.5 41t-37.5 11z
" />
    <glyph glyph-name="p" unicode="p" 
d="M44 -78v448q0 58 -9 100h84l5 -41q8 41 68 41h247q73 0 99 -26q28 -25 28 -96v-226q0 -70 -24.5 -96t-96.5 -26h-248l-24 1l-21 6q-12 6 -21 25l-2 -110q0 -58 9 -100h-103q9 36 9 100zM129 372v-274q0 -31 7.5 -41.5t36.5 -10.5h264q27 0 35.5 11t8.5 41v274
q0 30 -6.5 41t-37.5 11h-264q-28 0 -36 -10.5t-8 -41.5z" />
    <glyph glyph-name="q" unicode="q" 
d="M554 370v-448q0 -67 10 -100h-103q9 36 9 100v100q-9 -12 -26 -18l-16 -3l-31 -1h-240q-71 0 -97.5 26t-26.5 96v226q0 66 27 94t97 28h245l27 -1q7 0 19 -8q12 -6 22 -32l13 41h81l-7 -41zM470 98v274q0 30 -8 41t-36 11h-264q-28 0 -36 -10.5t-8 -41.5v-274
q0 -31 7.5 -41.5t36.5 -10.5h264q24 0 35 11q9 12 9 41z" />
    <glyph glyph-name="r" unicode="r" horiz-adv-x="378" 
d="M188 470h187l-5 -71l-67 8l-60 3h-70q-28 0 -36 -10.5t-8 -41.5v-258q0 -58 9 -100h-103q9 36 9 100v270q0 58 -9 100h85l4 -44q10 23 23.5 33.5t40.5 10.5z" />
    <glyph glyph-name="s" unicode="s" horiz-adv-x="568" 
d="M159 288h248q71 0 97 -24.5t26 -97.5v-86q0 -40 -26 -60t-88 -20h-378l-7 55q38 -9 101 -9h278q26 0 34.5 11t8.5 41v56q0 30 -6.5 41t-36.5 11h-257q-70 0 -96.5 26t-26.5 96v20q0 66 27 94t96 28h368l9 -55q-36 9 -101 9h-270q-28 0 -36 -10.5t-8 -41.5v-32
q0 -31 7.5 -41.5t36.5 -10.5z" />
    <glyph glyph-name="t" unicode="t" horiz-adv-x="452" 
d="M416 424h-236v-326q0 -31 7.5 -41.5t35.5 -10.5h116q60 0 101 9l-7 -55h-215q-71 0 -97 26t-26 96v302h-74v46h74v93l85 16v-109h236v-46z" />
    <glyph glyph-name="u" unicode="u" horiz-adv-x="623" 
d="M44 122v248q0 58 -9 100h94v-372q0 -31 7.5 -41.5t36.5 -10.5h271q27 0 35.5 11t8.5 41v272q0 58 -9 100h94v-370q0 -58 9 -100h-85l-5 34q-6 -15 -19 -24.5t-36 -9.5h-269q-71 0 -98 26q-26 28 -26 96z" />
    <glyph glyph-name="v" unicode="v" horiz-adv-x="586" 
d="M-22 470h108l10 -38l12 -32l185 -360l184 340q19 38 32 90h93l-11 -12l-34 -38l-24 -40l-202 -380h-109l-213 416l-12 23z" />
    <glyph glyph-name="w" unicode="w" horiz-adv-x="775" 
d="M-8 470h110l2 -42l17 -60l101 -308l127 410h108l133 -410l101 336l13 74h71l-10 -14l-9 -18l-9 -22l-9 -28l-117 -388h-94l-138 434l-134 -434h-97l-131 391l-15 45z" />
    <glyph glyph-name="x" unicode="x" horiz-adv-x="529" 
d="M441 470h86l-34 -31l-55 -55l-129 -134l120 -140l50 -56l23 -24l32 -30h-132l-15 32q-6 14 -18 24l-118 134l-122 -129l-28 -32l-16 -29h-95l35 30l14 12l10 11l52 52l118 124l-154 178l-32 34l-28 29h122l7 -12l8 -12l14 -16l36 -45l85 -97l126 131l20 22l12 16z" />
    <glyph glyph-name="y" unicode="y" horiz-adv-x="623" 
d="M572 470v-526q0 -65 -27.5 -93.5t-96.5 -28.5h-390l-9 55q38 -9 101 -9h293q27 0 35.5 11t8.5 41v95q-14 -15 -44 -15h-275q-71 0 -98 26q-26 28 -26 96v248q0 58 -9 100h94v-372q0 -31 7.5 -41.5t36.5 -10.5h270q27 0 35.5 11t8.5 41v272q0 58 -9 100h94z" />
    <glyph glyph-name="z" unicode="z" horiz-adv-x="568" 
d="M543 470l-381 -424h282q60 0 102 9l-5 -55h-526l384 424h-270q-57 0 -101 -9l7 55h508z" />
    <glyph glyph-name="braceleft" unicode="{" horiz-adv-x="321" 
d="M181 536v-161q0 -37 -26 -69t-62 -36q40 -9 64 -38.5t24 -69.5v-162q0 -30 7.5 -41t35.5 -11h56v-52h-61q-71 0 -97 26t-26 96v130q0 37 -24 70q-26 26 -60 26v52q29 0 58 25q26 26 26 67v130q0 69 26.5 95.5t96.5 26.5h61v-52h-56q-27 0 -35 -10.5t-8 -41.5z" />
    <glyph glyph-name="bar" unicode="|" horiz-adv-x="226" 
d="M74 0v640h76v-640h-76z" />
    <glyph glyph-name="braceright" unicode="}" horiz-adv-x="321" 
d="M137 0v161q0 36 24 66t64 39q-39 9 -64 40l-10 14l-9 19l-4 16l-1 19v162q0 30 -6.5 41t-36.5 11h-56v52h61q71 0 97 -24.5t26 -97.5v-130q0 -44 25.5 -70t58.5 -26v-52q-33 0 -58.5 -25t-25.5 -67v-130q0 -64 -26.5 -93t-96.5 -29h-61v52h56q26 0 34.5 11t8.5 41z" />
    <glyph glyph-name="asciitilde" unicode="~" horiz-adv-x="612" 
d="M486 306l33 -58q-31 -44 -60 -64l-28 -12l-29 -4q-19 0 -31 4l-27 9l-35 17l-62 27q-15 3 -26 5t-22 2q-25 0 -43.5 -16.5t-35.5 -51.5l-33 58q18 35 45.5 57.5t70.5 22.5l24 -1q8 0 25 -7l55 -22l56 -23l19 -6l21 -4q28 0 45 20l20 22z" />
    <glyph glyph-name="nonbreakingspace" unicode="&#xa0;" horiz-adv-x="505" 
 />
    <glyph glyph-name="exclamdown" unicode="&#xa1;" horiz-adv-x="226" 
d="M164 -170h-103v347l3 73l9 96h77l11 -84l3 -85v-347zM61 384v86h103v-86h-103z" />
    <glyph glyph-name="cent" unicode="&#xa2;" horiz-adv-x="473" 
d="M284 526h140l4 -53l-66 8l-60 3h-102q-27 0 -35 -10.5t-8 -41.5v-215q0 -31 7.5 -41.5t35.5 -10.5h102h18h15h12h13h47l21 4l-4 -46h-140v-104h-47v104h-96q-39 0 -55 16q-18 15 -18 57v257q0 37 18 55t55 18h96v90h47v-90z" />
    <glyph glyph-name="sterling" unicode="&#xa3;" horiz-adv-x="681" 
d="M631 463h-103v73q0 30 -6.5 41t-36.5 11h-290q-26 0 -37 -12q-8 -13 -8 -40v-71q0 -27 27 -54l56 -59h318v-56h-273q15 -15 30 -48l12 -31l4 -27q0 -51 -42 -95q-38 -29 -83 -41l286 -2q26 0 34.5 11t8.5 41v93h103v-75q0 -69 -26.5 -95.5t-96.5 -26.5h-469v49
q106 9 144 49t38 77q0 30 -19 59l-21 30l-26 32h-141v56h91q-57 36 -57 86v80q0 66 27 94t97 28h336q71 0 97 -24.5t26 -97.5v-55z" />
    <glyph glyph-name="currency" unicode="&#xa4;" horiz-adv-x="681" 
d="M541 575l52 -51l-57 -55q16 -21 35 -66l12 -40l4 -43q0 -43 -13 -79l-8 -21l-9 -16l-8 -15l-13 -17l57 -56l-52 -51l-57 56q-30 -23 -67.5 -36t-80.5 -13q-83 0 -148 49l-57 -56l-51 51l56 57q-50 65 -50 147q0 44 12 80q6 19 15 35.5t23 33.5l-56 55l51 51l57 -56l29 17
l37 16q45 16 82 16q79 0 147 -47zM336 156q64 0 115 48t51 116q0 65 -48.5 114.5t-117.5 49.5q-63 0 -114 -48.5t-51 -115.5q0 -63 48 -113.5t117 -50.5z" />
    <glyph glyph-name="yen" unicode="&#xa5;" horiz-adv-x="681" 
d="M598 272v-56h-209v-116q0 -58 9 -100h-121q9 36 9 100v116h-203v56h198l-48 68h-150v56h111l-51 72l-59 84l-64 88h147l15 -46l12 -22l22 -34l150 -214l178 269l11 25l10 22h88l-40 -45l-46 -65l-90 -134h121v-56h-160l-45 -68h205z" />
    <glyph glyph-name="brokenbar" unicode="&#xa6;" horiz-adv-x="226" 
d="M74 400v240h76v-240h-76zM74 0v240h76v-240h-76z" />
    <glyph glyph-name="section" unicode="&#xa7;" horiz-adv-x="623" 
d="M457 -178h-391l-17 70q38 -14 68 -18q30 -6 59 -6h276q27 0 35.5 11t8.5 41v88q0 30 -6.5 41t-37.5 11h-292q-71 0 -97.5 26t-26.5 96v91q0 43 10 67q13 25 49 25q-31 6 -49 24q-10 23 -10 73v56q0 66 27 94t97 28h393l14 -70q-33 12 -66 18l-44 6h-17h-275
q-28 0 -36 -10.5t-8 -41.5v-72q0 -31 7.5 -41.5t36.5 -10.5h292q71 0 97.5 -26t26.5 -96v-67v-15v-12v-35l-4 -24q-3 -20 -54 -32q35 -6 46.5 -28t11.5 -82v-57q0 -65 -27.5 -93.5t-96.5 -28.5zM496 192v94q0 30 -6.5 41t-37.5 11h-287q-28 0 -36 -10.5t-8 -41.5v-94
q0 -31 7.5 -41.5t36.5 -10.5h287q27 0 35.5 11t8.5 41z" />
    <glyph glyph-name="dieresis" unicode="&#xa8;" horiz-adv-x="208" 
d="M144 530v92h65v-92h-65zM-3 530v92h65v-92h-65z" />
    <glyph glyph-name="copyright" unicode="&#xa9;" horiz-adv-x="816" 
d="M732 320q0 -136 -97.5 -228t-230.5 -92q-132 0 -230 90.5t-98 229.5q0 138 97 229t231 91q135 0 231.5 -90.5t96.5 -229.5zM148 320q0 -11 1 -24.5t4 -29t5.5 -24.5t8.5 -25q18 -47 55 -85q73 -76 182 -76q102 0 179 76q38 38 57 84t19 104q0 113 -73.5 188.5
t-181.5 75.5q-105 0 -180.5 -76t-75.5 -188zM343 479h174l3 -32q-13 5 -29 5l-50 1h-96q-12 0 -15.5 -3.5t-6.5 -22.5v-216l3 -20q3 -3 19 -6h96h13h16h12l12 2l31 4l-3 -32h-179q-36 0 -54 12l-12 18l-4 32v196q0 33 15.5 47.5t54.5 14.5z" />
    <glyph glyph-name="ordfeminine" unicode="&#xaa;" horiz-adv-x="364" 
d="M351 567v-144v-32l1 -33h-49l-5 18q-6 -12 -14 -16l-29 -2h-164q-45 0 -62.5 15.5t-17.5 57.5v47q0 39 18.5 56.5t61.5 17.5h176q17 0 22.5 5.5t5.5 21.5q0 18 -7 21l-21 6h-167l-45 -1l-38 -5l5 40h250q38 0 62 -15q17 -17 17 -58zM295 423v95h-199q-13 0 -20.5 -7
t-7.5 -24v-64q0 -19 5 -25t23 -6h171q10 0 19 6t9 25z" />
    <glyph glyph-name="guillemotleft" unicode="&#xab;" horiz-adv-x="452" 
d="M126 235l98 -180h-63l-98 180l98 180h63zM289 235l98 -180h-64l-98 180l98 180h64z" />
    <glyph glyph-name="logicalnot" unicode="&#xac;" horiz-adv-x="612" 
d="M464 100v194h-398v76h474v-270h-76z" />
    <glyph glyph-name="minus" unicode="&#xad;" horiz-adv-x="612" 
d="M540 197h-474v76h474v-76z" />
    <glyph glyph-name="registered" unicode="&#xae;" horiz-adv-x="816" 
d="M732 320q0 -136 -97.5 -228t-230.5 -92q-132 0 -230 90.5t-98 229.5q0 138 97 229t231 91q135 0 231.5 -90.5t96.5 -229.5zM659 320q0 113 -73.5 188.5t-181.5 75.5q-105 0 -180.5 -76t-75.5 -188q0 -11 1 -24.5t4 -29t5.5 -24.5t8.5 -25q18 -47 55 -85q73 -76 182 -76
q102 0 179 76q38 38 57 84t19 104zM429 305h-123v-96q0 -34 4 -50h-61q3 18 3 50v220l-3 50h225q40 0 55 -13t15 -49v-50q0 -36 -13 -49t-46 -13q9 -23 19.5 -45.5t22.5 -46.5l12 -25l19 -29h-59zM306 453v-122h165q12 0 17 5l5 21v70q0 12 -3 20q-3 3 -19 6h-165z" />
    <glyph glyph-name="macron" unicode="&#xaf;" horiz-adv-x="208" 
d="M251 604v-46h-296v46h296z" />
    <glyph glyph-name="degree" unicode="&#xb0;" horiz-adv-x="408" 
d="M346 497q0 -60 -41.5 -101.5t-102.5 -41.5q-59 0 -103 42q-41 43 -41 101q0 60 41.5 101.5t102.5 41.5q59 0 103 -41q41 -43 41 -102zM202 396q39 0 68 29q28 31 28 72q0 43 -26 72q-15 15 -32.5 22t-37.5 7q-40 0 -68 -29t-28 -72t26.5 -72t69.5 -29z" />
    <glyph glyph-name="plusminus" unicode="&#xb1;" horiz-adv-x="612" 
d="M66 0v76h474v-76h-474zM265 328v142h76v-142h199v-76h-199v-143h-76v143h-199v76h199z" />
    <glyph glyph-name="twosuperior" unicode="&#xb2;" horiz-adv-x="429" 
d="M402 256h-368v157q0 18 13 32l45 17l236 57q13 3 13 26v28q0 19 -5 25t-23 6h-196l-82 -4l5 40h288q42 0 62 -15.5t20 -57.5v-29v-15q0 -9 -2 -17q0 -9 -7 -19q-4 -8 -39 -20l-237 -59l-17 -6l-1 -4l-4 -11v-95h221l83 4z" />
    <glyph glyph-name="threesuperior" unicode="&#xb3;" horiz-adv-x="408" 
d="M28 256l-5 40l36 -2l46 -2h191q10 0 19 6t9 25v78q0 19 -5 25t-23 6h-90l-51 -1l-31 -3v52q13 -5 34 -5l48 -1h90q11 0 19.5 6t8.5 26v67q0 19 -5 25t-23 6h-190l-82 -4l5 40h280q45 0 64.5 -16t19.5 -57v-64q0 -33 -15.5 -39t-42.5 -9q30 0 48 -15l7 -22l3 -31v-58
q0 -41 -19 -57t-65 -16h-281z" />
    <glyph glyph-name="acute" unicode="&#xb4;" horiz-adv-x="208" 
d="M230 660l-139 -140h-51l110 140h80z" />
    <glyph glyph-name="mu" unicode="&#xb5;" horiz-adv-x="623" 
d="M573 470v-362l2 -51l7 -57h-85l-5 34q-6 -15 -19 -24.5t-36 -9.5h-269l-39 3v-81q0 -58 9 -100h-103q9 36 9 100v440l-1 52l-8 56h94v-372q0 -31 7.5 -41.5t36.5 -10.5h271q27 0 35.5 11t8.5 41v264l-1 52l-8 56h94z" />
    <glyph glyph-name="paragraph" unicode="&#xb6;" horiz-adv-x="612" 
d="M245 -178v479q-97 0 -156.5 47t-59.5 119q0 87 64.5 130t171.5 43h262v-818h-85v762h-112v-762h-85z" />
    <glyph glyph-name="periodcentered" unicode="&#xb7;" horiz-adv-x="339" 
d="M168 289q21 0 39 -15q15 -17 15 -39q0 -23 -15.5 -38.5t-38.5 -15.5q-20 0 -40 15q-15 15 -15 39q0 18 15 36t40 18z" />
    <glyph glyph-name="cedilla" unicode="&#xb8;" horiz-adv-x="208" 
d="M98 0h38l-47 -59l37 6q28 0 54 -17q25 -19 25 -53q0 -38 -32 -61q-30 -24 -74 -24l-26 1l-27 3l-20 6l-26 10l16 30l32 -11l17 -4l15 -1q30 0 49 13t19 34q0 40 -52 40l-17 -1l-29 -7l-14 13z" />
    <glyph glyph-name="onesuperior" unicode="&#xb9;" horiz-adv-x="208" 
d="M110 640h33v-300l3 -41l7 -43h-88l5 21l3 22l2 41v238h-44v28z" />
    <glyph glyph-name="ordmasculine" unicode="&#xba;" horiz-adv-x="364" 
d="M352 567v-136q0 -42 -17 -57.5t-62 -15.5h-186q-45 0 -62.5 15.5t-17.5 57.5v136q0 37 18 55t62 18h186q38 0 62 -15q17 -17 17 -58zM296 423v152q0 19 -5 25t-23 6h-176q-13 0 -20.5 -7t-7.5 -24v-152q0 -19 5 -25t23 -6h176q10 0 19 6t9 25z" />
    <glyph glyph-name="guillemotright" unicode="&#xbb;" horiz-adv-x="452" 
d="M322 235l-98 180h64l98 -180l-98 -180h-64zM160 235l-98 180h63l98 -180l-98 -180h-63z" />
    <glyph glyph-name="onequarter" unicode="&#xbc;" horiz-adv-x="1020" 
d="M224 640h34v-300l3 -41l3 -24l4 -19h-89l5 21l3 22l2 41v238h-44v28zM475 117v51l299 216h70v-221h62v-46h-62v-52q0 -38 10 -65h-82l7 31l3 34v52h-307zM640 640h66l-442 -640h-68zM782 163v183l-257 -181z" />
    <glyph glyph-name="onehalf" unicode="&#xbd;" horiz-adv-x="1020" 
d="M917 0h-368v157q0 18 14 32q4 3 44 17l236 57q13 3 13 26v28q0 19 -5 25t-23 6h-196l-82 -4l4 40h289q42 0 62 -15.5t20 -57.5v-29v-15q0 -9 -2 -17q0 -9 -7 -19q-4 -8 -39 -20l-237 -59l-17 -6l-1 -4l-4 -11v-95h221l83 4zM174 640h33v-300l3 -41l3 -24l4 -19h-89l5 21
l3 22l2 41v238h-43v28zM590 640h65l-442 -640h-68z" />
    <glyph glyph-name="threequarters" unicode="&#xbe;" horiz-adv-x="1020" 
d="M28 256l-5 40l36 -2l46 -2h191q10 0 19 6t9 25v78q0 19 -5 25t-23 6h-90l-51 -1l-31 -3v52q13 -5 34 -5l48 -1h90q11 0 19.5 6t8.5 26v67q0 19 -5 25t-23 6h-190l-82 -4l5 40h280q45 0 64.5 -16t19.5 -57v-64q0 -33 -15.5 -39t-42.5 -9q30 0 48 -15l7 -22l3 -31v-58
q0 -41 -19 -57t-65 -16h-281zM566 117v52l298 215h71v-221h62v-46h-62v-52q0 -38 10 -65h-83q11 28 11 65v52h-307zM731 640h66l-444 -640h-66zM873 163v183l-257 -181z" />
    <glyph glyph-name="questiondown" unicode="&#xbf;" 
d="M299 384v86h103v-86h-103zM585 -170h-428q-71 0 -97.5 26t-26.5 96v111q0 51 21 72t60 21h141q27 0 35.5 11t8.5 41v137h103v-178q0 -30 -16.5 -43.5t-61.5 -13.5h-144q-28 0 -36 -10.5t-8 -41.5v-130q0 -30 7.5 -41t36.5 -11h284l66 3l60 8z" />
    <glyph glyph-name="Agrave" unicode="&#xc0;" horiz-adv-x="699" 
d="M353 674l-136 139h77l113 -139h-54zM709 0h-135v11q0 7 -2 11q0 10 -7 24l-27 58l-44 92h-346l-52 -108l-24 -56l-4 -32h-85q26 29 45 69l258 531l-13 20l-22 20h132l259 -525l36 -69q15 -27 31 -46zM470 248l-151 304l-147 -304h298z" />
    <glyph glyph-name="Aacute" unicode="&#xc1;" horiz-adv-x="699" 
d="M472 813l-140 -139h-50l111 139h79zM709 0h-135v11q0 7 -2 11q0 10 -7 24l-27 58l-44 92h-346l-52 -108l-24 -56l-4 -32h-85q26 29 45 69l258 531l-13 20l-22 20h132l259 -525l36 -69q15 -27 31 -46zM470 248l-151 304l-147 -304h298z" />
    <glyph glyph-name="Acircumflex" unicode="&#xc2;" horiz-adv-x="699" 
d="M310 813h68l114 -139h-65l-83 103l-82 -103h-65zM709 0h-135v11q0 7 -2 11q0 10 -7 24l-27 58l-44 92h-346l-52 -108l-24 -56l-4 -32h-85q26 29 45 69l258 531l-13 20l-22 20h132l259 -525l36 -69q15 -27 31 -46zM470 248l-151 304l-147 -304h298z" />
    <glyph glyph-name="Atilde" unicode="&#xc3;" horiz-adv-x="699" 
d="M224 686h-37l1 9q0 21 7.5 34.5t22.5 28.5q28 26 57 26q23 0 40 -7l36 -15l16 -8l20 -8l30 -8q16 0 31 12l6 15l10 23h38q-5 -43 -25.5 -70t-57.5 -27h-12q-7 0 -9 2l-15 6l-18 5l-27 11l-39 15l-26 6q-15 0 -29 -9zM709 0h-135v11q0 7 -2 11q0 10 -7 24l-27 58l-44 92
h-346l-52 -108l-24 -56l-4 -32h-85q26 29 45 69l258 531l-13 20l-22 20h132l259 -525l36 -69q15 -27 31 -46zM470 248l-151 304l-147 -304h298z" />
    <glyph glyph-name="Adieresis" unicode="&#xc4;" horiz-adv-x="699" 
d="M386 684v91h64v-91h-64zM238 684v91h65v-91h-65zM709 0h-135v11q0 7 -2 11q0 10 -7 24l-27 58l-44 92h-346l-52 -108l-24 -56l-4 -32h-85q26 29 45 69l258 531l-13 20l-22 20h132l259 -525l36 -69q15 -27 31 -46zM470 248l-151 304l-147 -304h298z" />
    <glyph glyph-name="Aring" unicode="&#xc5;" horiz-adv-x="699" 
d="M344 884q39 0 75 -30q30 -32 30 -74t-31 -73t-74 -31q-37 0 -73 30q-32 30 -32 74q0 42 32 73t73 31zM709 0h-135v11q0 7 -2 11q0 10 -7 24l-27 58l-44 92h-346l-52 -108l-24 -56l-4 -32h-85q26 29 45 69l258 531l-13 20l-22 20h132l259 -525l36 -69q15 -27 31 -46z
M470 248l-151 304l-147 -304h298zM344 837q-26 0 -42 -16t-16 -41q0 -24 17 -41t41 -17q25 0 42 16.5t17 41.5q0 24 -15.5 40.5t-43.5 16.5z" />
    <glyph glyph-name="AE" unicode="&#xc6;" horiz-adv-x="944" 
d="M528 588v-242h237l77 2l56 5v-66l-44 4l-89 3h-237v-242h266l79 2l22 1l25 4l-6 -59h-498q9 36 9 100v100h-263l-52 -78l-24 -40l-14 -27q-9 -21 -12 -53l-101 -2l37 42l47 68l328 500l-54 30h597l6 -59l-39 4l-87 3h-266zM194 252h231v306l-1 24l-5 5l-8 -3l-10 -14z
" />
    <glyph glyph-name="Ccedilla" unicode="&#xc7;" horiz-adv-x="568" 
d="M541 0h-180l-48 -59l37 6q28 0 54 -17q25 -19 25 -53q0 -36 -31 -60.5t-75 -24.5l-27 1l-25 3l-47 16l16 30l33 -11l31 -5q30 0 49.5 12.5t19.5 34.5q0 40 -53 40l-17 -1l-27 -7l-15 13l61 82h-137q-79 0 -111 25.5t-32 98.5v392q0 74 31 99t112 25h347l6 -64l-27 7
q-12 3 -31 3l-99 2h-192q-26 0 -36 -11q-8 -13 -8 -41v-432q0 -30 8 -41t36 -11h192h28q87 0 138 12z" />
    <glyph glyph-name="Egrave" unicode="&#xc8;" horiz-adv-x="568" 
d="M303 674l-137 139h76l113 -139h-52zM44 640h497l5 -59l-39 4q-32 3 -87 3h-263v-242h239l77 2l55 5v-66l-43 4l-89 3h-239v-242h263l79 2l22 1l25 4l-5 -59h-497l5 26l3 22l2 52v440q0 54 -10 100z" />
    <glyph glyph-name="Eacute" unicode="&#xc9;" horiz-adv-x="568" 
d="M420 813l-139 -139h-51l111 139h79zM44 640h497l5 -59l-39 4q-32 3 -87 3h-263v-242h239l77 2l55 5v-66l-43 4l-89 3h-239v-242h263l79 2l22 1l25 4l-5 -59h-497l5 26l3 22l2 52v440q0 54 -10 100z" />
    <glyph glyph-name="Ecircumflex" unicode="&#xca;" horiz-adv-x="568" 
d="M259 813h67l114 -139h-64l-83 103l-83 -103h-65zM44 640h497l5 -59l-39 4q-32 3 -87 3h-263v-242h239l77 2l55 5v-66l-43 4l-89 3h-239v-242h263l79 2l22 1l25 4l-5 -59h-497l5 26l3 22l2 52v440q0 54 -10 100z" />
    <glyph glyph-name="Edieresis" unicode="&#xcb;" horiz-adv-x="568" 
d="M334 684v91h65v-91h-65zM187 684v91h64v-91h-64zM44 640h497l5 -59l-39 4q-32 3 -87 3h-263v-242h239l77 2l55 5v-66l-43 4l-89 3h-239v-242h263l79 2l22 1l25 4l-5 -59h-497l5 26l3 22l2 52v440q0 54 -10 100z" />
    <glyph glyph-name="Igrave" unicode="&#xcc;" horiz-adv-x="245" 
d="M128 674l-137 139h77l113 -139h-53zM174 540v-440q0 -58 9 -100h-121q9 36 9 100v440q0 58 -9 100h121q-9 -36 -9 -100z" />
    <glyph glyph-name="Iacute" unicode="&#xcd;" horiz-adv-x="245" 
d="M247 813l-139 -139h-50l111 139h78zM174 540v-440q0 -58 9 -100h-121q9 36 9 100v440q0 58 -9 100h121q-9 -36 -9 -100z" />
    <glyph glyph-name="Icircumflex" unicode="&#xce;" horiz-adv-x="245" 
d="M84 813h66l116 -139h-65l-83 103l-83 -103h-64zM174 540v-440q0 -58 9 -100h-121q9 36 9 100v440q0 58 -9 100h121q-9 -36 -9 -100z" />
    <glyph glyph-name="Idieresis" unicode="&#xcf;" horiz-adv-x="245" 
d="M165 684v91h64v-91h-64zM17 684v91h65v-91h-65zM174 540v-440q0 -58 9 -100h-121q9 36 9 100v440q0 58 -9 100h121q-9 -36 -9 -100z" />
    <glyph glyph-name="Eth" unicode="&#xd0;" horiz-adv-x="681" 
d="M-32 300v52h86v188q0 54 -10 100h445q82 0 111 -26q11 -8 23 -36l6 -27l2 -35v-392q0 -69 -30.5 -96.5t-111.5 -27.5h-445l5 26l3 22l2 52v200h-86zM351 352v-52h-194v-248h328q26 0 34.5 11t8.5 41v432q0 30 -6.5 41t-36.5 11h-328v-236h194z" />
    <glyph glyph-name="Ntilde" unicode="&#xd1;" horiz-adv-x="699" 
d="M241 686h-37l1 9q0 32 27.5 60.5t59.5 28.5q23 0 40 -7l37 -15l16 -9l19 -7l30 -8q17 0 32 12l8 16l7 22h38q-5 -43 -25.5 -70t-57.5 -27h-12q-7 0 -9 2l-15 6l-45 16l-39 15l-26 6q-18 0 -29 -11l-11 -18zM638 0h-130l-400 568l-2 -460l2 -51l7 -57h-74l7 30l2 37l4 111
v312q0 100 -11 150h133l407 -574l3 466l-1 52l-8 56h72l-4 -23l-4 -37l-3 -61v-15v-504z" />
    <glyph glyph-name="Ograve" unicode="&#xd2;" horiz-adv-x="681" 
d="M353 674l-136 139h77l113 -139h-54zM177 640h320q75 0 104 -32q30 -30 30 -90v-396q0 -57 -30 -89.5t-104 -32.5h-320q-72 0 -103.5 32.5t-31.5 89.5v396q0 54 30 88t105 34zM528 104v432q0 30 -6.5 41t-36.5 11h-296q-26 0 -36 -11q-8 -13 -8 -41v-432q0 -30 8 -41
t36 -11h296q26 0 34.5 11t8.5 41z" />
    <glyph glyph-name="Oacute" unicode="&#xd3;" horiz-adv-x="681" 
d="M472 813l-140 -139h-50l111 139h79zM177 640h320q75 0 104 -32q30 -30 30 -90v-396q0 -57 -30 -89.5t-104 -32.5h-320q-72 0 -103.5 32.5t-31.5 89.5v396q0 54 30 88t105 34zM528 104v432q0 30 -6.5 41t-36.5 11h-296q-26 0 -36 -11q-8 -13 -8 -41v-432q0 -30 8 -41
t36 -11h296q26 0 34.5 11t8.5 41z" />
    <glyph glyph-name="Ocircumflex" unicode="&#xd4;" horiz-adv-x="681" 
d="M310 813h68l114 -139h-65l-83 103l-82 -103h-65zM177 640h320q75 0 104 -32q30 -30 30 -90v-396q0 -57 -30 -89.5t-104 -32.5h-320q-72 0 -103.5 32.5t-31.5 89.5v396q0 54 30 88t105 34zM528 104v432q0 30 -6.5 41t-36.5 11h-296q-26 0 -36 -11q-8 -13 -8 -41v-432
q0 -30 8 -41t36 -11h296q26 0 34.5 11t8.5 41z" />
    <glyph glyph-name="Otilde" unicode="&#xd5;" horiz-adv-x="681" 
d="M224 686h-37l1 9q0 21 7.5 34.5t22.5 28.5q28 26 57 26q23 0 40 -7l36 -15l16 -8l20 -8l30 -8q16 0 31 12l6 15l10 23h38q-5 -43 -25.5 -70t-57.5 -27h-12q-7 0 -9 2l-15 6l-18 5l-27 11l-39 15l-26 6q-15 0 -29 -9zM177 640h320q75 0 104 -32q30 -30 30 -90v-396
q0 -57 -30 -89.5t-104 -32.5h-320q-72 0 -103.5 32.5t-31.5 89.5v396q0 54 30 88t105 34zM528 104v432q0 30 -6.5 41t-36.5 11h-296q-26 0 -36 -11q-8 -13 -8 -41v-432q0 -30 8 -41t36 -11h296q26 0 34.5 11t8.5 41z" />
    <glyph glyph-name="Odieresis" unicode="&#xd6;" horiz-adv-x="681" 
d="M386 684v91h64v-91h-64zM238 684v91h65v-91h-65zM177 640h320q75 0 104 -32q30 -30 30 -90v-396q0 -57 -30 -89.5t-104 -32.5h-320q-72 0 -103.5 32.5t-31.5 89.5v396q0 54 30 88t105 34zM528 104v432q0 30 -6.5 41t-36.5 11h-296q-26 0 -36 -11q-8 -13 -8 -41v-432
q0 -30 8 -41t36 -11h296q26 0 34.5 11t8.5 41z" />
    <glyph glyph-name="multiply" unicode="&#xd7;" horiz-adv-x="612" 
d="M248 235l-182 181l55 54l182 -181l182 181l55 -54l-183 -181l183 -181l-55 -54l-182 181l-182 -181l-55 54z" />
    <glyph glyph-name="Oslash" unicode="&#xd8;" horiz-adv-x="681" 
d="M119 7l-89 -110h-62l108 134q-13 10 -26 38l-6 25l-2 28v396q0 54 30 88t105 34h320l32 -1q10 0 30 -7l83 102h64l-103 -128q8 -10 18 -35l7 -25l3 -28v-396q0 -57 -30 -89.5t-104 -32.5h-320q-38 0 -58 7zM145 118l372 461q-6 9 -32 9h-296q-26 0 -36 -11q-8 -13 -8 -41
v-418zM528 513l-367 -455q8 -6 28 -6h296q26 0 34.5 11t8.5 41v409z" />
    <glyph glyph-name="Ugrave" unicode="&#xd9;" horiz-adv-x="681" 
d="M353 674l-136 139h77l113 -139h-54zM196 52h327q25 0 35 11.5t10 40.5v428l-1 52l-9 56h73l-4 -23l-4 -37l-3 -61v-15v-381q0 -71 -23 -97t-88 -26h-323q-75 0 -103.5 25.5t-28.5 97.5v417q0 54 -10 100h122q-9 -36 -9 -100v-436q0 -30 6 -42q7 -10 33 -10z" />
    <glyph glyph-name="Uacute" unicode="&#xda;" horiz-adv-x="681" 
d="M472 813l-140 -139h-50l111 139h79zM196 52h327q25 0 35 11.5t10 40.5v428l-1 52l-9 56h73l-4 -23l-4 -37l-3 -61v-15v-381q0 -71 -23 -97t-88 -26h-323q-75 0 -103.5 25.5t-28.5 97.5v417q0 54 -10 100h122q-9 -36 -9 -100v-436q0 -30 6 -42q7 -10 33 -10z" />
    <glyph glyph-name="Ucircumflex" unicode="&#xdb;" horiz-adv-x="681" 
d="M310 813h68l114 -139h-65l-83 103l-82 -103h-65zM196 52h327q25 0 35 11.5t10 40.5v428l-1 52l-9 56h73l-4 -23l-4 -37l-3 -61v-15v-381q0 -71 -23 -97t-88 -26h-323q-75 0 -103.5 25.5t-28.5 97.5v417q0 54 -10 100h122q-9 -36 -9 -100v-436q0 -30 6 -42q7 -10 33 -10z
" />
    <glyph glyph-name="Udieresis" unicode="&#xdc;" horiz-adv-x="681" 
d="M386 684v91h64v-91h-64zM238 684v91h65v-91h-65zM196 52h327q25 0 35 11.5t10 40.5v428l-1 52l-9 56h73l-4 -23l-4 -37l-3 -61v-15v-381q0 -71 -23 -97t-88 -26h-323q-75 0 -103.5 25.5t-28.5 97.5v417q0 54 -10 100h122q-9 -36 -9 -100v-436q0 -30 6 -42q7 -10 33 -10z
" />
    <glyph glyph-name="Yacute" unicode="&#xdd;" 
d="M420 813l-139 -139h-51l111 139h79zM328 324l179 269l12 25l8 22h89l-40 -45l-47 -65l-178 -264v-166q0 -67 10 -100h-122q9 36 9 100v165l-142 203l-60 84l-63 88h146q6 -31 14 -44l6 -14l9 -12l21 -32z" />
    <glyph glyph-name="Thorn" unicode="&#xde;" horiz-adv-x="660" 
d="M54 100v440q0 54 -10 100h122q-9 -36 -9 -100v-20h340q82 0 111 -26q11 -8 23 -36l6 -27l2 -35v-152q0 -69 -30.5 -96.5t-111.5 -27.5h-340v-20q0 -58 9 -100h-122l5 26l3 22zM157 468v-296h336q26 0 34.5 11t8.5 41v192q0 30 -6.5 41t-36.5 11h-336z" />
    <glyph glyph-name="germandbls" unicode="&#xdf;" horiz-adv-x="623" 
d="M-4 424v46h78v87q0 48 23 65.5t78 17.5h252q58 0 78 -17q23 -15 23 -66v-50q0 -46 -6.5 -61t-44.5 -22l29 -1q16 0 28.5 -4t26.5 -13q21 -17 21 -95v-228q0 -44 -24 -63.5t-77 -19.5h-241v60l52 -9l47 -5h28h86q27 0 35.5 11t8.5 41v229q0 34 -8 42q-7 10 -35 10h-218v56
h164q26 0 34.5 11t8.5 41v55q0 30 -6.5 41t-36.5 11h-198q-27 0 -35 -10.5t-8 -41.5v-542h-94l6 53l3 55v316h-78z" />
    <glyph glyph-name="agrave" unicode="&#xe0;" 
d="M303 520l-137 140h76l113 -140h-52zM554 348v-248q0 -67 10 -100h-82l-8 30q-9 -17 -21 -25l-16 -4l-28 -1h-252q-71 0 -97.5 26t-26.5 96v72q0 66 27 94t97 28h269q24 0 35 11q9 12 9 41v6q0 29 -11 39q-9 11 -33 11h-283q-57 0 -101 -9l7 55h382q71 0 97 -24.5
t26 -97.5zM470 98v172h-308q-28 0 -36 -10.5t-8 -41.5v-120q0 -31 7.5 -41.5t36.5 -10.5h264q24 0 35 11q9 12 9 41z" />
    <glyph glyph-name="aacute" unicode="&#xe1;" 
d="M420 660l-139 -140h-51l111 140h79zM554 348v-248q0 -67 10 -100h-82l-8 30q-9 -17 -21 -25l-16 -4l-28 -1h-252q-71 0 -97.5 26t-26.5 96v72q0 66 27 94t97 28h269q24 0 35 11q9 12 9 41v6q0 29 -11 39q-9 11 -33 11h-283q-57 0 -101 -9l7 55h382q71 0 97 -24.5
t26 -97.5zM470 98v172h-308q-28 0 -36 -10.5t-8 -41.5v-120q0 -31 7.5 -41.5t36.5 -10.5h264q24 0 35 11q9 12 9 41z" />
    <glyph glyph-name="acircumflex" unicode="&#xe2;" 
d="M259 660h67l114 -140h-64l-83 103l-83 -103h-65zM554 348v-248q0 -67 10 -100h-82l-8 30q-9 -17 -21 -25l-16 -4l-28 -1h-252q-71 0 -97.5 26t-26.5 96v72q0 66 27 94t97 28h269q24 0 35 11q9 12 9 41v6q0 29 -11 39q-9 11 -33 11h-283q-57 0 -101 -9l7 55h382
q71 0 97 -24.5t26 -97.5zM470 98v172h-308q-28 0 -36 -10.5t-8 -41.5v-120q0 -31 7.5 -41.5t36.5 -10.5h264q24 0 35 11q9 12 9 41z" />
    <glyph glyph-name="atilde" unicode="&#xe3;" 
d="M173 532h-38l1 9q0 36 31 63q24 26 56 26q24 0 41 -7l36 -15l35 -16l15 -6l16 -2q20 0 28 11l18 39h38q-5 -43 -25.5 -69.5t-56.5 -26.5q-20 0 -37 7l-44 16l-40 16l-26 5q-18 0 -27 -9l-8 -13zM554 348v-248q0 -67 10 -100h-82l-8 30q-9 -17 -21 -25l-16 -4l-28 -1h-252
q-71 0 -97.5 26t-26.5 96v72q0 66 27 94t97 28h269q24 0 35 11q9 12 9 41v6q0 29 -11 39q-9 11 -33 11h-283q-57 0 -101 -9l7 55h382q71 0 97 -24.5t26 -97.5zM470 98v172h-308q-28 0 -36 -10.5t-8 -41.5v-120q0 -31 7.5 -41.5t36.5 -10.5h264q24 0 35 11q9 12 9 41z" />
    <glyph glyph-name="adieresis" unicode="&#xe4;" 
d="M334 530v92h65v-92h-65zM187 530v92h64v-92h-64zM554 348v-248q0 -67 10 -100h-82l-8 30q-9 -17 -21 -25l-16 -4l-28 -1h-252q-71 0 -97.5 26t-26.5 96v72q0 66 27 94t97 28h269q24 0 35 11q9 12 9 41v6q0 29 -11 39q-9 11 -33 11h-283q-57 0 -101 -9l7 55h382
q71 0 97 -24.5t26 -97.5zM470 98v172h-308q-28 0 -36 -10.5t-8 -41.5v-120q0 -31 7.5 -41.5t36.5 -10.5h264q24 0 35 11q9 12 9 41z" />
    <glyph glyph-name="aring" unicode="&#xe5;" 
d="M293 730q42 0 73.5 -30.5t31.5 -73.5q0 -36 -30 -74q-33 -30 -75 -30q-39 0 -74 30q-31 31 -31 74q0 38 30 71t75 33zM554 348v-248q0 -67 10 -100h-82l-8 30q-9 -17 -21 -25l-16 -4l-28 -1h-252q-71 0 -97.5 26t-26.5 96v72q0 66 27 94t97 28h269q24 0 35 11q9 12 9 41
v6q0 29 -11 39q-9 11 -33 11h-283q-57 0 -101 -9l7 55h382q71 0 97 -24.5t26 -97.5zM470 98v172h-308q-28 0 -36 -10.5t-8 -41.5v-120q0 -31 7.5 -41.5t36.5 -10.5h264q24 0 35 11q9 12 9 41zM293 684q-22 0 -40.5 -15.5t-18.5 -42.5q0 -24 16 -41q19 -17 43 -17t41 16.5
t17 41.5q0 26 -16 42t-42 16z" />
    <glyph glyph-name="ae" unicode="&#xe6;" horiz-adv-x="1020" 
d="M984 55l-10 -55h-445q-33 0 -52 28q-19 -28 -53 -28h-267q-71 0 -97.5 26t-26.5 96v72q0 66 27 94t97 28h255q24 0 33 10.5t9 41.5v6q0 31 -7.5 40.5t-34.5 9.5h-269q-57 0 -101 -9l7 55h808q72 0 98.5 -26t26.5 -96v-142h-442v-108q0 -31 7.5 -41.5t36.5 -10.5h299
q57 0 101 9zM454 98v172h-292q-28 0 -36 -10.5t-8 -41.5v-120q0 -31 7.5 -41.5t36.5 -10.5h250q24 0 33 10.5t9 41.5zM540 252h357v120q0 30 -6.5 41t-37.5 11h-269q-28 0 -36 -10.5t-8 -41.5v-120z" />
    <glyph glyph-name="ccedilla" unicode="&#xe7;" horiz-adv-x="547" 
d="M522 0h-196l-47 -59l37 6q28 0 54 -17q25 -19 25 -53q0 -38 -32 -61.5t-74 -23.5q-40 0 -51 4l-22 6l-26 10l16 30l32 -11l16 -4l16 -1q30 0 49 13t19 34q0 40 -52 40l-17 -1l-28 -7l-15 13l62 82h-120q-71 0 -98 26q-26 28 -26 96v226q0 66 27 94t97 28h347l4 -55
q-36 9 -101 9h-245q-28 0 -36 -10.5t-8 -41.5v-274q0 -31 7.5 -41.5t36.5 -10.5h255q60 0 101 9z" />
    <glyph glyph-name="egrave" unicode="&#xe8;" 
d="M303 520l-137 140h76l113 -140h-52zM566 206h-448v-108q0 -31 7.5 -41.5t36.5 -10.5h303q57 0 101 9l-12 -55h-397q-71 0 -97.5 26t-26.5 96v226q0 66 27 94t97 28h285q71 0 97 -25q9 -9 20 -40l5 -27l2 -30v-142zM118 252h363v120q0 30 -6.5 41t-37.5 11h-275
q-28 0 -36 -10.5t-8 -41.5v-120z" />
    <glyph glyph-name="eacute" unicode="&#xe9;" 
d="M420 660l-139 -140h-51l111 140h79zM566 206h-448v-108q0 -31 7.5 -41.5t36.5 -10.5h303q57 0 101 9l-12 -55h-397q-71 0 -97.5 26t-26.5 96v226q0 66 27 94t97 28h285q71 0 97 -25q9 -9 20 -40l5 -27l2 -30v-142zM118 252h363v120q0 30 -6.5 41t-37.5 11h-275
q-28 0 -36 -10.5t-8 -41.5v-120z" />
    <glyph glyph-name="ecircumflex" unicode="&#xea;" 
d="M259 660h67l114 -140h-64l-83 103l-83 -103h-65zM566 206h-448v-108q0 -31 7.5 -41.5t36.5 -10.5h303q57 0 101 9l-12 -55h-397q-71 0 -97.5 26t-26.5 96v226q0 66 27 94t97 28h285q71 0 97 -25q9 -9 20 -40l5 -27l2 -30v-142zM118 252h363v120q0 30 -6.5 41t-37.5 11
h-275q-28 0 -36 -10.5t-8 -41.5v-120z" />
    <glyph glyph-name="edieresis" unicode="&#xeb;" 
d="M334 530v92h65v-92h-65zM187 530v92h64v-92h-64zM566 206h-448v-108q0 -31 7.5 -41.5t36.5 -10.5h303q57 0 101 9l-12 -55h-397q-71 0 -97.5 26t-26.5 96v226q0 66 27 94t97 28h285q71 0 97 -25q9 -9 20 -40l5 -27l2 -30v-142zM118 252h363v120q0 30 -6.5 41t-37.5 11
h-275q-28 0 -36 -10.5t-8 -41.5v-120z" />
    <glyph glyph-name="igrave" unicode="&#xec;" horiz-adv-x="208" 
d="M90 520l-136 140h75l114 -140h-53zM145 470v-362l2 -51l8 -57h-105l8 53l3 55v262q0 68 -11 100h95z" />
    <glyph glyph-name="iacute" unicode="&#xed;" horiz-adv-x="208" 
d="M247 660l-139 -140h-50l111 140h78zM145 470v-362l2 -51l8 -57h-105l8 53l3 55v262q0 68 -11 100h95z" />
    <glyph glyph-name="icircumflex" unicode="&#xee;" horiz-adv-x="208" 
d="M67 660h67l115 -140h-64l-83 103l-83 -103h-64zM145 470v-362l2 -51l8 -57h-105l8 53l3 55v262q0 68 -11 100h95z" />
    <glyph glyph-name="idieresis" unicode="&#xef;" horiz-adv-x="208" 
d="M144 530v92h65v-92h-65zM-3 530v92h65v-92h-65zM145 470v-362l2 -51l8 -57h-105l8 53l3 55v262q0 68 -11 100h95z" />
    <glyph glyph-name="eth" unicode="&#xf0;" 
d="M349 520l-103 -64l-42 30l92 58l-139 60l59 36l136 -60l97 60l45 -30l-86 -54l114 -50q29 -12 36.5 -23.5t7.5 -28.5v-332q0 -64 -27 -94q-28 -28 -97 -28h-285q-71 0 -97.5 26t-26.5 96v134q0 66 27 94t97 28h285l25 -2l14 -3v57q0 19 -8 27q-6 11 -35 25zM437 332h-275
q-28 0 -36 -10.5t-8 -41.5v-182q0 -31 7.5 -41.5t36.5 -10.5h275q27 0 35.5 11t8.5 41v182q0 30 -6.5 41t-37.5 11z" />
    <glyph glyph-name="ntilde" unicode="&#xf1;" horiz-adv-x="623" 
d="M190 532h-39l2 9q0 20 8 34.5t22 28.5q28 26 57 26q24 0 41 -7l36 -15l35 -16l31 -8q20 0 28 11l18 39h39q0 -18 -7 -35q-2 -7 -8 -16l-11 -17q-22 -28 -57 -28l-18 1l-19 6l-44 16l-39 16l-27 5q-18 0 -27 -9l-8 -13zM44 100v270q0 58 -9 100h98v-34l15 17l14 10
q10 6 26 7h261q71 0 97.5 -26t26.5 -96v-248q0 -58 9 -100h-103q9 36 9 100v272q0 30 -6.5 41t-37.5 11h-271q-28 0 -36 -10.5t-8 -41.5v-272q0 -58 9 -100h-103q9 36 9 100z" />
    <glyph glyph-name="ograve" unicode="&#xf2;" 
d="M303 520l-137 140h76l113 -140h-52zM566 348v-226q0 -64 -27 -94q-28 -28 -97 -28h-285q-71 0 -97.5 26t-26.5 96v226q0 66 27 94t97 28h285q71 0 97 -25q9 -9 20 -40l5 -27zM437 424h-275q-28 0 -36 -10.5t-8 -41.5v-274q0 -31 7.5 -41.5t36.5 -10.5h275q27 0 35.5 11
t8.5 41v274q0 30 -6.5 41t-37.5 11z" />
    <glyph glyph-name="oacute" unicode="&#xf3;" 
d="M420 660l-139 -140h-51l111 140h79zM566 348v-226q0 -64 -27 -94q-28 -28 -97 -28h-285q-71 0 -97.5 26t-26.5 96v226q0 66 27 94t97 28h285q71 0 97 -25q9 -9 20 -40l5 -27zM437 424h-275q-28 0 -36 -10.5t-8 -41.5v-274q0 -31 7.5 -41.5t36.5 -10.5h275q27 0 35.5 11
t8.5 41v274q0 30 -6.5 41t-37.5 11z" />
    <glyph glyph-name="ocircumflex" unicode="&#xf4;" 
d="M259 660h67l114 -140h-64l-83 103l-83 -103h-65zM566 348v-226q0 -64 -27 -94q-28 -28 -97 -28h-285q-71 0 -97.5 26t-26.5 96v226q0 66 27 94t97 28h285q71 0 97 -25q9 -9 20 -40l5 -27zM437 424h-275q-28 0 -36 -10.5t-8 -41.5v-274q0 -31 7.5 -41.5t36.5 -10.5h275
q27 0 35.5 11t8.5 41v274q0 30 -6.5 41t-37.5 11z" />
    <glyph glyph-name="otilde" unicode="&#xf5;" 
d="M173 532h-38l1 9q0 36 31 63q24 26 56 26q24 0 41 -7l36 -15l35 -16l15 -6l16 -2q20 0 28 11l18 39h38q-5 -43 -25.5 -69.5t-56.5 -26.5q-20 0 -37 7l-44 16l-40 16l-26 5q-18 0 -27 -9l-8 -13zM566 348v-226q0 -64 -27 -94q-28 -28 -97 -28h-285q-71 0 -97.5 26
t-26.5 96v226q0 66 27 94t97 28h285q71 0 97 -25q9 -9 20 -40l5 -27zM437 424h-275q-28 0 -36 -10.5t-8 -41.5v-274q0 -31 7.5 -41.5t36.5 -10.5h275q27 0 35.5 11t8.5 41v274q0 30 -6.5 41t-37.5 11z" />
    <glyph glyph-name="odieresis" unicode="&#xf6;" 
d="M334 530v92h65v-92h-65zM187 530v92h64v-92h-64zM566 348v-226q0 -64 -27 -94q-28 -28 -97 -28h-285q-71 0 -97.5 26t-26.5 96v226q0 66 27 94t97 28h285q71 0 97 -25q9 -9 20 -40l5 -27zM437 424h-275q-28 0 -36 -10.5t-8 -41.5v-274q0 -31 7.5 -41.5t36.5 -10.5h275
q27 0 35.5 11t8.5 41v274q0 30 -6.5 41t-37.5 11z" />
    <glyph glyph-name="divide" unicode="&#xf7;" horiz-adv-x="612" 
d="M371 427q0 -27 -18.5 -47t-49.5 -20q-27 0 -47.5 21.5t-20.5 45.5q0 27 20 47t48 20q27 0 47.5 -18.5t20.5 -48.5zM371 43q0 -27 -18.5 -47t-49.5 -20q-24 0 -48 21q-20 22 -20 46q0 27 20 47t48 20q27 0 47.5 -18.5t20.5 -48.5zM540 197h-474v76h474v-76z" />
    <glyph glyph-name="oslash" unicode="&#xf8;" 
d="M135 1l-88 -104h-62l97 115q-49 21 -49 110v226q0 66 27 94t97 28h285l25 -1l83 100h64l-95 -112q47 -21 47 -109v-226q0 -64 -27 -94q-28 -28 -97 -28h-285zM476 406l-303 -360h264q27 0 35.5 11t8.5 41v274q0 25 -5 34zM124 62l305 362h-267q-28 0 -36 -10.5t-8 -41.5
v-274q0 -27 6 -36z" />
    <glyph glyph-name="ugrave" unicode="&#xf9;" horiz-adv-x="623" 
d="M320 520l-137 140h77l113 -140h-53zM44 122v248q0 58 -9 100h94v-372q0 -31 7.5 -41.5t36.5 -10.5h271q27 0 35.5 11t8.5 41v272q0 58 -9 100h94v-370q0 -58 9 -100h-85l-5 34q-6 -15 -19 -24.5t-36 -9.5h-269q-71 0 -98 26q-26 28 -26 96z" />
    <glyph glyph-name="uacute" unicode="&#xfa;" horiz-adv-x="623" 
d="M437 660l-139 -140h-51l112 140h78zM44 122v248q0 58 -9 100h94v-372q0 -31 7.5 -41.5t36.5 -10.5h271q27 0 35.5 11t8.5 41v272q0 58 -9 100h94v-370q0 -58 9 -100h-85l-5 34q-6 -15 -19 -24.5t-36 -9.5h-269q-71 0 -98 26q-26 28 -26 96z" />
    <glyph glyph-name="ucircumflex" unicode="&#xfb;" horiz-adv-x="623" 
d="M276 660h67l114 -140h-64l-83 103l-83 -103h-64zM44 122v248q0 58 -9 100h94v-372q0 -31 7.5 -41.5t36.5 -10.5h271q27 0 35.5 11t8.5 41v272q0 58 -9 100h94v-370q0 -58 9 -100h-85l-5 34q-6 -15 -19 -24.5t-36 -9.5h-269q-71 0 -98 26q-26 28 -26 96z" />
    <glyph glyph-name="udieresis" unicode="&#xfc;" horiz-adv-x="623" 
d="M351 530v92h65v-92h-65zM204 530v92h65v-92h-65zM44 122v248q0 58 -9 100h94v-372q0 -31 7.5 -41.5t36.5 -10.5h271q27 0 35.5 11t8.5 41v272q0 58 -9 100h94v-370q0 -58 9 -100h-85l-5 34q-6 -15 -19 -24.5t-36 -9.5h-269q-71 0 -98 26q-26 28 -26 96z" />
    <glyph glyph-name="yacute" unicode="&#xfd;" horiz-adv-x="623" 
d="M437 660l-139 -140h-51l112 140h78zM572 470v-526q0 -65 -27.5 -93.5t-96.5 -28.5h-390l-9 55q38 -9 101 -9h293q27 0 35.5 11t8.5 41v95q-14 -15 -44 -15h-275q-71 0 -98 26q-26 28 -26 96v248q0 58 -9 100h94v-372q0 -31 7.5 -41.5t36.5 -10.5h270q27 0 35.5 11t8.5 41
v272q0 58 -9 100h94z" />
    <glyph glyph-name="thorn" unicode="&#xfe;" 
d="M44 -78v618q0 58 -9 100h94v-211q8 41 63 41h247q73 0 99 -26q28 -25 28 -96v-226q0 -70 -24.5 -96t-96.5 -26h-248l-24 1l-21 6q-12 6 -21 25l-2 -110q0 -58 9 -100h-103q9 36 9 100zM129 372v-274q0 -31 7.5 -41.5t36.5 -10.5h264q27 0 35.5 11t8.5 41v274
q0 30 -6.5 41t-37.5 11h-264q-28 0 -36 -10.5t-8 -41.5z" />
    <glyph glyph-name="ydieresis" unicode="&#xff;" horiz-adv-x="623" 
d="M351 530v92h65v-92h-65zM204 530v92h65v-92h-65zM572 470v-526q0 -65 -27.5 -93.5t-96.5 -28.5h-390l-9 55q38 -9 101 -9h293q27 0 35.5 11t8.5 41v95q-14 -15 -44 -15h-275q-71 0 -98 26q-26 28 -26 96v248q0 58 -9 100h94v-372q0 -31 7.5 -41.5t36.5 -10.5h270
q27 0 35.5 11t8.5 41v272q0 58 -9 100h94z" />
    <glyph glyph-name="dotlessi" unicode="&#x131;" horiz-adv-x="208" 
d="M145 470v-362l2 -51l8 -57h-105l8 53l3 55v262q0 68 -11 100h95z" />
    <glyph glyph-name="Lslash" unicode="&#x141;" horiz-adv-x="586" 
d="M164 299v-247h287l79 2l22 1l26 4l-6 -59h-522l8 41l3 59v154l-91 -40v52l91 40v234q0 68 -11 100h123q-9 -36 -9 -100v-189l238 105v-52z" />
    <glyph glyph-name="lslash" unicode="&#x142;" horiz-adv-x="208" 
d="M61 295l-83 -42v46l83 42v199q0 68 -11 100h95v-256l83 42v-47l-83 -41v-238q0 -67 10 -100h-105l8 41l3 59v195z" />
    <glyph glyph-name="OE" unicode="&#x152;" horiz-adv-x="1020" 
d="M49 122v396q0 54 30 88t105 34h806l5 -59l-40 4q-32 3 -86 3h-245v-242h220l77 2l56 5v-66l-44 4l-89 3h-220v-242h245l78 2l23 1q13 0 25 4l-5 -59h-806q-72 0 -103.5 32.5t-31.5 89.5zM478 588h-282q-26 0 -33 -9t-12 -43v-432q0 -29 8.5 -40.5t36.5 -11.5h282
q26 0 34.5 11t8.5 41v432q0 30 -6.5 41t-36.5 11z" />
    <glyph glyph-name="oe" unicode="&#x153;" horiz-adv-x="1020" 
d="M986 55l-10 -55h-819q-71 0 -97.5 26t-26.5 96v226q0 66 27 94t97 28h700q72 0 98.5 -26t26.5 -96v-142h-433v-108q0 -26 6 -41q8 -11 38 -11h292q57 0 101 9zM421 424h-259q-28 0 -36 -10.5t-8 -41.5v-274q0 -31 7.5 -41.5t36.5 -10.5h259q24 0 34 11.5t10 40.5v274
q0 30 -7 41t-37 11zM549 252h348v120q0 30 -6.5 41t-37.5 11h-260q-26 0 -36 -11q-8 -13 -8 -41v-120z" />
    <glyph glyph-name="Scaron" unicode="&#x160;" horiz-adv-x="642" 
d="M393 813h64l-114 -139h-67l-113 139h64l83 -103zM183 640h391l8 -59l-40 4q-32 3 -88 3h-267q-26 0 -37 -11q-7 -16 -7 -41v-107q0 -30 8 -41t36 -11h266q81 0 112 -25t31 -99v-129q0 -69 -32 -96.5t-111 -27.5h-399l-9 59l40 -4q32 -3 87 -3h277q27 0 35.5 11t8.5 41
v125q0 30 -6.5 41t-37.5 11h-266q-75 0 -111 24q-15 12 -23.5 38t-8.5 62v111q0 74 31 99t112 25z" />
    <glyph glyph-name="scaron" unicode="&#x161;" horiz-adv-x="568" 
d="M357 660h65l-113 -140h-68l-114 140h65l83 -103zM159 288h248q71 0 97 -24.5t26 -97.5v-86q0 -40 -26 -60t-88 -20h-378l-7 55q38 -9 101 -9h278q26 0 34.5 11t8.5 41v56q0 30 -6.5 41t-36.5 11h-257q-70 0 -96.5 26t-26.5 96v20q0 66 27 94t96 28h368l9 -55
q-36 9 -101 9h-270q-28 0 -36 -10.5t-8 -41.5v-32q0 -31 7.5 -41.5t36.5 -10.5z" />
    <glyph glyph-name="Ydieresis" unicode="&#x178;" 
d="M334 684v91h65v-91h-65zM187 684v91h64v-91h-64zM328 324l179 269l12 25l8 22h89l-40 -45l-47 -65l-178 -264v-166q0 -67 10 -100h-122q9 36 9 100v165l-142 203l-60 84l-63 88h146q6 -31 14 -44l6 -14l9 -12l21 -32z" />
    <glyph glyph-name="Zcaron" unicode="&#x17d;" 
d="M376 813h64l-114 -139h-67l-114 139h65l83 -103zM601 640l-428 -588h279l79 2l22 1l26 4l-8 -59h-554l427 588h-262l-79 -1l-47 -6l8 59h537z" />
    <glyph glyph-name="zcaron" unicode="&#x17e;" horiz-adv-x="568" 
d="M357 660h65l-113 -140h-68l-114 140h65l83 -103zM543 470l-381 -424h282q60 0 102 9l-5 -55h-526l384 424h-270q-57 0 -101 -9l7 55h508z" />
    <glyph glyph-name="florin" unicode="&#x192;" horiz-adv-x="510" 
d="M377 640h122l6 -73l-40 17l-45 4q-22 0 -36.5 -9.5t-21.5 -34.5l-44 -162h128v-52h-142l-105 -389q-21 -81 -53.5 -100t-122.5 -19h-76l-10 73q41 -21 80 -21q37 0 51 14q11 7 26 45l109 397h-100v52h114l37 139q24 80 42 99.5t81 19.5z" />
    <glyph glyph-name="hungarumlaut" unicode="&#x2ba;" horiz-adv-x="208" 
d="M223 600h-51l80 138h80zM121 738h78l-104 -138h-51z" />
    <glyph glyph-name="circumflex" unicode="&#x2c6;" horiz-adv-x="208" 
d="M69 660h67l114 -140h-64l-83 103l-83 -103h-64z" />
    <glyph glyph-name="caron" unicode="&#x2c7;" horiz-adv-x="208" 
d="M186 660h64l-114 -140h-67l-113 140h64l83 -103z" />
    <glyph glyph-name="breve" unicode="&#x2d8;" horiz-adv-x="208" 
d="M210 653h38q-6 -44 -35.5 -85.5t-115.5 -41.5q-72 0 -98.5 35.5t-40.5 91.5h40q3 -24 27 -56q25 -25 78 -25q54 0 72 20t35 61z" />
    <glyph glyph-name="dotaccent" unicode="&#x2d9;" horiz-adv-x="208" 
d="M135 530h-64v92h64v-92z" />
    <glyph glyph-name="ring" unicode="&#x2da;" horiz-adv-x="208" 
d="M103 730q39 0 75 -30q30 -32 30 -74t-31 -73t-74 -31q-38 0 -74 30q-31 31 -31 74q0 38 30 71t75 33zM103 684q-25 0 -42 -15.5t-17 -42.5q0 -24 18 -42q19 -16 41 -16q24 0 41.5 17t17.5 41t-15.5 41t-43.5 17z" />
    <glyph glyph-name="ogonek" unicode="&#x2db;" horiz-adv-x="208" 
d="M258 19v-9q-66 -24 -109.5 -52.5t-43.5 -76.5q0 -45 53 -45q25 0 50 11l32 16l27 13l14 -30l-35 -19l-41 -20q-40 -17 -68 -17q-43 0 -72 21.5t-29 62.5q0 58 64 94q61 28 158 51z" />
    <glyph glyph-name="tilde" unicode="&#x2dc;" horiz-adv-x="208" 
d="M-17 532h-38l1 9q7 38 32.5 63.5t54.5 25.5q24 0 41 -7l36 -15l35 -16l31 -8q20 0 28 11l18 39h39l-4 -25l-7 -18l-15 -25q-22 -28 -57 -28l-18 1l-19 6l-44 16l-39 16l-27 5q-18 0 -27 -9l-8 -13z" />
    <glyph glyph-name="summation" unicode="&#x3a3;" horiz-adv-x="720" 
d="M624 643l15 -129h-44q-30 105 -84.5 144t-172.5 39h-133l318 -431l-347 -394h189q70 0 105 8q38 6 68 24q50 29 84 116h46l-31 -130l-2 -7q-23 -99 -112 -99h-487l393 446l-379 514h465q62 0 83 -15q13 -8 26 -86z" />
    <glyph glyph-name="Omega" unicode="&#x3a9;" horiz-adv-x="776" 
d="M599 90q45 0 69 18q20 18 20 68h23v-176h-275v180q75 15 122.5 77.5t47.5 150.5q0 106 -59.5 168.5t-158.5 62.5q-95 0 -156.5 -63t-61.5 -168q0 -91 42.5 -149t126.5 -79v-180h-274v176h23q0 -48 19 -67t70 -19h124v59q-117 21 -184 89.5t-67 169.5q0 118 94.5 192.5
t243.5 74.5q150 0 243.5 -72.5t93.5 -194.5q0 -99 -63 -165.5t-187 -93.5v-59h124z" />
    <glyph glyph-name="pi" unicode="&#x3c0;" horiz-adv-x="554" 
d="M408 373l-1 -24l-3 -150v-40q0 -88 8 -107q10 -19 31 -19q25 0 43 30q8 15 12 36l4 52h25v-5q0 -80 -26 -118t-81 -38q-53 0 -81 40q-7 13 -17 60q-6 41 -6 104l1 78l3 104l-50 1l-78 2q0 -243 -23 -316t-81 -73q-33 0 -52 29t-19 86v19h24q0 -24 9 -39q11 -13 29 -13
q42 0 58 62q5 18 13 88t8 157h-23q-39 0 -60 -12.5t-28 -40.5h-23q0 31 9 56t30 40q35 27 122 27l103 -3l153 -3q32 0 48 6t19 22l23 1q0 -49 -23.5 -74.5t-75.5 -25.5h-14z" />
    <glyph glyph-name="endash" unicode="&#x2013;" horiz-adv-x="510" 
d="M0 263h505v-56h-505v56z" />
    <glyph glyph-name="emdash" unicode="&#x2014;" horiz-adv-x="1020" 
d="M0 263h1010v-56h-1010v56z" />
    <glyph glyph-name="quoteleft" unicode="&#x2018;" horiz-adv-x="226" 
d="M164 502h-103v86l48 52h47l-33 -52h41v-86z" />
    <glyph glyph-name="quoteright" unicode="&#x2019;" horiz-adv-x="226" 
d="M61 640h103v-86l-49 -52h-46l32 52h-40v86z" />
    <glyph glyph-name="quotesinglbase" unicode="&#x201a;" horiz-adv-x="226" 
d="M61 0v86h103v-86l-49 -52h-46l32 52h-40z" />
    <glyph glyph-name="quotedblleft" unicode="&#x201c;" horiz-adv-x="378" 
d="M313 502h-103v86l49 52h46l-32 -52h40v-86zM164 502h-103v86l48 52h47l-33 -52h41v-86z" />
    <glyph glyph-name="quotedblright" unicode="&#x201d;" horiz-adv-x="378" 
d="M210 640h103v-86l-48 -52h-47l32 52h-40v86zM61 640h103v-86l-49 -52h-46l32 52h-40v86z" />
    <glyph glyph-name="quotedblbase" unicode="&#x201e;" horiz-adv-x="378" 
d="M210 86h103v-86l-48 -52h-47l32 52h-40v86zM61 86h103v-86l-49 -52h-46l32 52h-40v86z" />
    <glyph glyph-name="dagger" unicode="&#x2020;" horiz-adv-x="623" 
d="M267 640h84v-242h178v-62h-178v-514h-84v514h-178v62h178v242z" />
    <glyph glyph-name="daggerdbl" unicode="&#x2021;" horiz-adv-x="623" 
d="M267 106v280h-172v62h172v192h84v-192h172v-62h-172v-280h172v-62h-172v-222h-84v222h-172v62h172z" />
    <glyph glyph-name="bullet" unicode="&#x2022;" horiz-adv-x="510" 
d="M251 480q64 0 113.5 -47.5t49.5 -112.5q0 -66 -46 -113t-117 -47q-63 0 -114 48q-46 49 -46 112q0 66 46 113q22 21 50.5 34t63.5 13z" />
    <glyph glyph-name="ellipsis" unicode="&#x2026;" horiz-adv-x="1020" 
d="M893 86v-86h-103v86h103zM555 86v-86h-102v86h102zM220 86v-86h-103v86h103z" />
    <glyph glyph-name="perthousand" unicode="&#x2030;" horiz-adv-x="1133" 
d="M210 0h-60l399 639h59zM794 68v192q0 39 15 54t61 15h156q44 0 61 -14q15 -15 15 -55v-192q0 -39 -16 -53.5t-60 -14.5h-156q-43 0 -59.5 13.5t-16.5 54.5zM435 68v192q0 39 15.5 54t60.5 15h157q43 0 60 -14q15 -15 15 -55v-192q0 -39 -16 -53.5t-59 -14.5h-157
q-41 0 -60 13q-16 14 -16 55zM20 379v192q0 39 15 54t61 15h155q45 0 62 -14q15 -15 15 -55v-192q0 -39 -16 -53.5t-61 -14.5h-155q-43 0 -59.5 13.5t-16.5 54.5zM512 266v-203q0 -21 20 -21h114l15 3q3 3 6 18v203q0 21 -21 21h-114q-11 0 -15 -4zM871 266v-203
q0 -21 20 -21h114q11 0 15 4l5 17v203q0 21 -20 21h-114q-11 0 -15 -4zM97 577v-203q0 -21 20 -21h114q11 0 15 4l5 17v203q0 21 -20 21h-114q-11 0 -15 -4z" />
    <glyph glyph-name="guilsinglleft" unicode="&#x2039;" horiz-adv-x="302" 
d="M132 235l98 -180h-63l-98 180l98 180h63z" />
    <glyph glyph-name="guilsinglright" unicode="&#x203a;" horiz-adv-x="302" 
d="M167 235l-98 180h63l98 -180l-98 -180h-63z" />
    <glyph glyph-name="trademark" unicode="&#x2122;" horiz-adv-x="1010" 
d="M227 611h-54l-36 -1l-31 -4l6 34h287l5 -34l-28 4l-38 1h-54v-268l1 -31q0 -13 4 -24h-67l4 24l1 31v268zM469 289h-41q6 15 6 37l1 61v171q0 51 -6 83h79l141 -313l140 313h76l-4 -33l-3 -34v-8v-222l2 -30q0 -14 4 -25h-66l4 24l1 31v258l-142 -313h-54l-142 313
l-1 -263l1 -27z" />
    <glyph glyph-name="partialdiff" unicode="&#x2202;" horiz-adv-x="499" 
d="M362 287l6 28l3 31l3 89q0 86 -17 126q-15 41 -47 41q-19 0 -51 -35t-56 -35q-14 0 -24 6t-13 26q0 25 30.5 48t72.5 23q74 0 125 -72q20 -33 33 -86.5t13 -109.5q0 -163 -64.5 -271.5t-159.5 -108.5q-65 0 -109 51.5t-44 136.5q0 81 53 143t126 62q45 0 72 -21t48 -72z
M259 349q-48 0 -87 -60q-35 -62 -35 -161q0 -56 22 -87.5t63 -31.5q53 0 87.5 64t34.5 151q0 57 -22 91t-63 34z" />
    <glyph glyph-name="Delta" unicode="&#x2206;" horiz-adv-x="618" 
d="M601 0h-580l279 672h22zM93 45h377l-188 459z" />
    <glyph glyph-name="product" unicode="&#x220f;" horiz-adv-x="831" 
d="M119 -176v880h-89v40h775v-40h-89v-880h89v-40h-267v40h85v880h-411v-880h85v-40h-267v40h89z" />
    <glyph glyph-name="fraction" unicode="&#x2215;" horiz-adv-x="171" 
d="M276 640h61l-442 -640h-64z" />
    <glyph glyph-name="radical" unicode="&#x221a;" horiz-adv-x="554" 
d="M600 764h-58l-293 -784h-32l-157 431l-62 -22l-12 39l139 48l126 -346l255 681h94v-47z" />
    <glyph glyph-name="infinity" unicode="&#x221e;" horiz-adv-x="720" 
d="M370 238q-35 -61 -73 -93q-18 -15 -40 -24l-22 -5l-24 -2q-66 0 -111.5 52.5t-45.5 131.5q0 83 41 134.5t106 51.5q44 0 81 -29t68 -95q32 62 70 93q18 13 41 22t48 9q63 0 110 -53q21 -24 34 -58t13 -73q0 -83 -39.5 -134.5t-107.5 -51.5q-42 0 -84 30q-33 27 -65 94z
M333 327q-25 45 -59 69t-77 24q-51 0 -84.5 -35t-33.5 -90q0 -54 29 -89q31 -34 78 -34q38 0 72 31q32 32 75 124zM387 271q21 -45 57.5 -69t78.5 -24q53 0 85.5 35t32.5 90q0 54 -30.5 88.5t-80.5 34.5q-32 0 -71 -36q-31 -32 -72 -119z" />
    <glyph glyph-name="integral" unicode="&#x222b;" horiz-adv-x="277" 
d="M286 757q36 0 58 -19q24 -18 24 -48q0 -20 -13 -34t-37 -14q-25 0 -44 31q-15 32 -30 33q-57 0 -57 -310l-3 -98v-16v-13v-12l-1 -40l-1 -16l-3 -23l-3 -52q0 -17 -3 -32.5t-5 -24.5q-12 -86 -33.5 -135.5t-62 -82t-81.5 -32.5q-36 0 -59 18.5t-23 48.5q0 21 13 34t37 13
q25 0 41 -30t33 -33q58 0 58 324l2 84l2 67l2 49v25q0 16 2 26l9 60q12 96 32 135q24 51 62 86q40 31 84 31z" />
    <glyph glyph-name="approxequal" unicode="&#x2248;" horiz-adv-x="554" 
d="M15 100v77l44 24l44 20q40 14 75 14q40 0 113 -24t103 -24q23 0 58.5 15.5t86.5 51.5v-78l-41 -25l-36 -17q-44 -13 -73 -13q-17 0 -27.5 2t-15.5 3l-62 18q-74 24 -117 24q-26 0 -64 -15l-39 -21l-25 -14zM15 219v77l44 25l41 18q40 14 77 14q40 0 116 -23.5t101 -23.5
l29 3q16 4 31 11l37 18q10 6 21.5 14t26.5 20v-77l-41 -24l-38 -18q-47 -13 -71 -13q-41 0 -109.5 23.5t-107.5 23.5q-21 0 -36.5 -3t-30.5 -11q-22 -9 -90 -54z" />
    <glyph glyph-name="notequal" unicode="&#x2260;" horiz-adv-x="554" 
d="M417 336h92v-64h-150l-74 -72h224v-64h-284l-119 -118l-43 44l74 74h-92v64h152l74 72h-226v64h284l119 118l45 -44z" />
    <glyph glyph-name="lessequal" unicode="&#x2264;" horiz-adv-x="554" 
d="M511 18h-468v68h468v-68zM164 280l347 -107v-70l-467 145v65l467 145v-70z" />
    <glyph glyph-name="greaterequal" unicode="&#x2265;" horiz-adv-x="554" 
d="M511 18h-468v68h468v-68zM511 248l-468 -145v70l348 107l-348 108v70l468 -145v-65z" />
    <glyph glyph-name="lozenge" unicode="&#x25ca;" horiz-adv-x="499" 
d="M249 807l247 -518l-247 -522l-246 522zM249 688l-189 -399l189 -403l190 403z" />
    <glyph glyph-name="apple" unicode="&#xf000;" horiz-adv-x="798" 
d="M412 594l-1 7v11q0 60 44.5 110t119.5 66v-12l1 -18q0 -61 -51 -113t-101 -52h-4zM742 197q-25 -55 -54 -103q-21 -36 -48 -65q-46 -46 -100 -46q-25 0 -66 15t-59 17q-22 0 -65.5 -15t-61.5 -17q-29 0 -64 21l-31 27l-32 38q-44 58 -77 143q-14 41 -21 76l-5 36l-2 36
q0 108 62 175t159 67q16 0 35.5 -3.5t40.5 -13.5q19 -7 35.5 -11.5t25.5 -5.5q22 0 64 17t71 17q58 0 98 -20q41 -18 79 -60q-44 -28 -74 -70q-25 -42 -25 -90q0 -52 30 -95t85 -70z" />
    <glyph glyph-name="fi" unicode="&#xf001;" horiz-adv-x="586" 
d="M439 528v68h85v-68h-85zM524 470v-370q0 -58 9 -100h-103q9 36 9 100v270q0 58 -9 100h94zM391 470v-46h-226v-316l2 -51l7 -57h-103l6 53l3 55v316h-77v46h77v48q0 69 26.5 95.5t96.5 26.5h203l8 -55q-36 9 -101 9h-105q-27 0 -35 -10.5t-8 -41.5v-72h226z" />
    <glyph glyph-name="fl" unicode="&#xf002;" horiz-adv-x="586" 
d="M430 640h94v-540q0 -58 9 -100h-103q9 36 9 100v440q0 58 -9 100zM391 470v-46h-226v-316l2 -51l7 -57h-103l6 53l3 55v316h-77v46h77v48q0 69 26.5 95.5t96.5 26.5h203l8 -55q-36 9 -101 9h-105q-27 0 -35 -10.5t-8 -41.5v-72h226z" />
  </font>
</defs>
</svg>
